<svg xmlns="http://www.w3.org/2000/svg" xmlns:xlink="http://www.w3.org/1999/xlink" width="500" zoomAndPan="magnify" viewBox="0 0 375 149.999998" height="200" preserveAspectRatio="xMidYMid meet" version="1.0"><defs><filter x="0%" y="0%" width="100%" height="100%" id="68807b9cde"><feColorMatrix values="0 0 0 0 1 0 0 0 0 1 0 0 0 0 1 0 0 0 1 0" color-interpolation-filters="sRGB"/></filter><g/><mask id="9e4770e5cf"><g filter="url(#68807b9cde)"><rect x="-37.5" width="450" fill="#000000" y="-15" height="179.999997" fill-opacity="0.28"/></g></mask><clipPath id="83b6fe877e"><path d="M 0.441406 0.320312 L 56.601562 0.320312 L 56.601562 59.359375 L 0.441406 59.359375 Z M 0.441406 0.320312 " clip-rule="nonzero"/></clipPath><clipPath id="8d731cbc85"><rect x="0" width="57" y="0" height="60"/></clipPath><mask id="95b6cec51b"><g filter="url(#68807b9cde)"><rect x="-37.5" width="450" fill="#000000" y="-15" height="179.999997" fill-opacity="0.1"/></g></mask><clipPath id="45440a19eb"><path d="M 0.441406 0.320312 L 28.519531 0.320312 L 28.519531 46.398438 L 0.441406 46.398438 Z M 0.441406 0.320312 " clip-rule="nonzero"/></clipPath><clipPath id="36399b7ef5"><rect x="0" width="29" y="0" height="47"/></clipPath><mask id="351d731465"><g filter="url(#68807b9cde)"><rect x="-37.5" width="450" fill="#000000" y="-15" height="179.999997" fill-opacity="0.5"/></g></mask><clipPath id="f552e80199"><path d="M 0.441406 0.320312 L 29 0.320312 L 29 59.359375 L 0.441406 59.359375 Z M 0.441406 0.320312 " clip-rule="nonzero"/></clipPath><clipPath id="a1a87312b3"><rect x="0" width="29" y="0" height="60"/></clipPath><mask id="f91d46ae8f"><g filter="url(#68807b9cde)"><rect x="-37.5" width="450" fill="#000000" y="-15" height="179.999997" fill-opacity="0.21"/></g></mask><clipPath id="018091403a"><path d="M 0.519531 0.878906 L 25 0.878906 L 25 28.960938 L 0.519531 28.960938 Z M 0.519531 0.878906 " clip-rule="nonzero"/></clipPath><clipPath id="2b5878408f"><rect x="0" width="25" y="0" height="29"/></clipPath><mask id="1355477c2a"><g filter="url(#68807b9cde)"><rect x="-37.5" width="450" fill="#000000" y="-15" height="179.999997" fill-opacity="0.51"/></g></mask><clipPath id="9c2e5b9e14"><path d="M 0.441406 0.320312 L 26.601562 0.320312 L 26.601562 59.359375 L 0.441406 59.359375 Z M 0.441406 0.320312 " clip-rule="nonzero"/></clipPath><clipPath id="ca108483c6"><rect x="0" width="27" y="0" height="60"/></clipPath><mask id="10c1c4faf6"><g filter="url(#68807b9cde)"><rect x="-37.5" width="450" fill="#000000" y="-15" height="179.999997" fill-opacity="0.42"/></g></mask><clipPath id="246f6c6026"><path d="M 0.558594 0.160156 L 39 0.160156 L 39 43.601562 L 0.558594 43.601562 Z M 0.558594 0.160156 " clip-rule="nonzero"/></clipPath><clipPath id="f5f53868d2"><rect x="0" width="40" y="0" height="44"/></clipPath></defs><path fill="#d11d4d" d="M 95.175781 68.945312 L 94.175781 59.0625 C 95.003906 58.851562 95.613281 58.101562 95.613281 57.207031 C 95.613281 56.179688 94.808594 55.34375 93.792969 55.296875 L 93.238281 49.808594 C 93.726562 49.582031 94.054688 49.070312 94.003906 48.488281 C 93.949219 47.863281 93.449219 47.351562 92.828125 47.289062 C 92.496094 47.253906 92.1875 47.339844 91.941406 47.511719 C 90.585938 46.597656 87.992188 44.960938 84.597656 43.328125 C 84.335938 43.203125 84.066406 43.078125 83.789062 42.949219 C 83.878906 42.609375 83.890625 42.238281 83.753906 41.84375 C 83.5 41.109375 82.828125 40.574219 82.050781 40.53125 C 81.304688 40.488281 80.640625 40.878906 80.292969 41.472656 C 75.980469 39.816406 70.609375 38.363281 64.945312 38.308594 C 63.070312 38.292969 61.179688 38.472656 59.277344 38.851562 C 59.082031 38.890625 58.882812 38.933594 58.683594 38.976562 C 58.394531 38.289062 57.710938 37.804688 56.917969 37.804688 C 55.859375 37.804688 55 38.664062 55 39.71875 C 55 39.824219 55.011719 39.925781 55.027344 40.023438 C 54.007812 40.378906 52.984375 40.792969 51.964844 41.261719 C 48.386719 42.914062 45.519531 44.921875 43.484375 46.59375 C 43.101562 46.316406 42.617188 46.171875 42.09375 46.242188 C 41.230469 46.355469 40.542969 47.0625 40.449219 47.925781 C 40.324219 49.082031 41.222656 50.058594 42.351562 50.058594 C 42.914062 50.058594 43.417969 49.8125 43.769531 49.425781 L 46.097656 50.976562 C 44.648438 51.316406 43.15625 51.800781 41.640625 52.449219 L 57.125 61.300781 C 57.796875 61.6875 58.371094 62.222656 58.792969 62.875 L 64.765625 71.996094 C 65.234375 72.710938 65.214844 73.636719 64.722656 74.332031 L 61.507812 78.847656 L 63.5 74.316406 C 63.804688 73.621094 63.710938 72.820312 63.25 72.21875 L 57.710938 65.015625 L 57.621094 64.902344 C 56.953125 64.003906 55.996094 63.359375 54.914062 63.082031 L 50.316406 61.894531 L 37.558594 58.597656 C 37.558594 58.597656 37.554688 58.597656 37.554688 58.597656 C 37.554688 58.597656 37.554688 58.601562 37.558594 58.601562 C 38.390625 62.570312 40.085938 67.734375 39.324219 70.636719 C 38.558594 73.542969 34.308594 78.90625 32.050781 81.613281 C 31.398438 82.394531 31.75 83.589844 32.726562 83.894531 C 34.105469 84.324219 35.828125 84.890625 36.796875 85.320312 C 37.777344 85.753906 37.527344 86.945312 37.097656 87.933594 C 36.75 88.738281 37.207031 89.664062 38.058594 89.882812 L 40.167969 90.425781 L 38.554688 91.84375 C 38.132812 92.214844 38.167969 92.890625 38.640625 93.195312 C 39.609375 93.816406 40.738281 95.253906 39.851562 98.476562 C 38.429688 103.632812 42.066406 103.613281 51.15625 104.046875 C 51.367188 104.058594 51.566406 104.074219 51.757812 104.097656 C 59.546875 105.03125 51.160156 116.472656 50.609375 117.210938 L 50.582031 117.246094 C 50.582031 117.246094 50.582031 117.25 50.578125 117.25 C 63.691406 108.828125 75.847656 105.671875 87.445312 105.5625 C 87.445312 105.5625 86.070312 102.78125 85.199219 99.269531 C 85.925781 99.027344 86.457031 98.367188 86.503906 97.570312 C 86.570312 96.507812 85.695312 95.558594 84.628906 95.539062 C 84.269531 95.53125 83.933594 95.625 83.644531 95.789062 L 75.5 85.457031 C 75.542969 85.410156 75.582031 85.363281 75.621094 85.3125 L 83.335938 89.578125 C 83.210938 89.917969 83.171875 90.300781 83.273438 90.703125 C 83.46875 91.492188 84.160156 92.085938 84.972656 92.152344 C 86.101562 92.242188 87.046875 91.351562 87.046875 90.242188 C 87.046875 89.542969 86.671875 88.933594 86.113281 88.597656 C 87.003906 86.542969 88.25 84.035156 89.539062 81.5625 C 89.757812 81.144531 89.976562 80.726562 90.195312 80.3125 C 90.425781 80.375 90.6875 80.375 90.960938 80.25 C 91.359375 80.070312 91.644531 79.6875 91.675781 79.253906 C 91.699219 78.867188 91.539062 78.519531 91.277344 78.289062 C 92.503906 76.011719 93.640625 73.980469 94.394531 72.644531 C 94.667969 72.75 94.972656 72.796875 95.292969 72.761719 C 96.226562 72.65625 96.960938 71.867188 96.996094 70.929688 C 97.035156 69.871094 96.214844 68.996094 95.175781 68.945312 Z M 92.675781 49.929688 L 93.222656 55.351562 C 92.910156 55.433594 92.632812 55.589844 92.402344 55.800781 L 86.523438 51.078125 C 86.589844 50.929688 86.628906 50.761719 86.628906 50.585938 C 86.628906 50.550781 86.628906 50.519531 86.625 50.488281 L 91.472656 49.140625 C 91.679688 49.601562 92.136719 49.925781 92.675781 49.929688 Z M 91.820312 57.585938 L 84.46875 60.261719 C 84.023438 59.222656 83.238281 58.363281 82.25 57.824219 L 85.140625 51.722656 C 85.242188 51.75 85.34375 51.765625 85.449219 51.765625 C 85.71875 51.765625 85.964844 51.675781 86.164062 51.527344 L 92.042969 56.246094 C 91.878906 56.527344 91.78125 56.855469 91.78125 57.207031 C 91.78125 57.335938 91.796875 57.464844 91.820312 57.585938 Z M 84.078125 64.980469 L 93.292969 70.175781 C 93.214844 70.378906 93.171875 70.597656 93.167969 70.828125 L 86.882812 71.683594 L 84.953125 71.945312 C 84.78125 71.507812 84.355469 71.203125 83.859375 71.203125 C 83.804688 71.203125 83.75 71.207031 83.699219 71.214844 L 81.957031 66.832031 C 82.566406 66.550781 83.105469 66.148438 83.550781 65.664062 C 83.746094 65.449219 83.921875 65.222656 84.078125 64.980469 Z M 83.546875 43.484375 C 87.257812 45.199219 90.085938 46.960938 91.542969 47.9375 C 91.433594 48.125 91.367188 48.34375 91.363281 48.578125 L 86.441406 49.945312 C 86.230469 49.621094 85.867188 49.40625 85.449219 49.40625 C 85.375 49.40625 85.300781 49.414062 85.226562 49.425781 L 82.945312 44.074219 C 83.1875 43.921875 83.394531 43.722656 83.546875 43.484375 Z M 82.027344 44.355469 C 82.160156 44.347656 82.292969 44.328125 82.417969 44.296875 L 84.707031 49.667969 C 84.441406 49.882812 84.269531 50.214844 84.269531 50.585938 C 84.269531 50.921875 84.414062 51.230469 84.640625 51.445312 L 81.730469 57.578125 C 81.386719 57.4375 81.027344 57.335938 80.648438 57.273438 Z M 80.523438 43.730469 C 80.769531 44 81.089844 44.199219 81.457031 44.292969 L 80.082031 57.214844 C 79.996094 57.210938 79.914062 57.207031 79.832031 57.207031 C 78.523438 57.207031 77.335938 57.703125 76.4375 58.515625 L 70.101562 52.285156 C 70.417969 51.941406 70.609375 51.488281 70.609375 50.988281 C 70.609375 50.777344 70.574219 50.578125 70.515625 50.386719 Z M 57.28125 89.179688 C 57.40625 89.222656 57.539062 89.25 57.679688 89.25 C 57.960938 89.25 58.21875 89.152344 58.421875 88.988281 L 64.25 93.390625 C 64.203125 93.496094 64.175781 93.609375 64.164062 93.726562 L 57.605469 94.621094 C 57.449219 94.203125 57.058594 93.894531 56.59375 93.859375 C 56.550781 92.375 56.765625 90.800781 57.28125 89.179688 Z M 58.855469 87.933594 L 72.320312 84.847656 C 72.394531 85.039062 72.5 85.214844 72.628906 85.371094 L 65.894531 92.8125 C 65.726562 92.722656 65.539062 92.675781 65.335938 92.675781 C 65.054688 92.675781 64.796875 92.773438 64.59375 92.9375 L 58.769531 88.53125 C 58.828125 88.390625 58.863281 88.230469 58.863281 88.070312 C 58.863281 88.023438 58.859375 87.976562 58.855469 87.933594 Z M 67.417969 105.199219 C 62.109375 104.660156 57.980469 101.085938 56.878906 96.152344 C 57.296875 96.011719 57.609375 95.640625 57.671875 95.191406 L 64.242188 94.292969 C 64.414062 94.730469 64.839844 95.035156 65.335938 95.035156 C 65.34375 95.035156 65.347656 95.035156 65.351562 95.035156 L 67.808594 104.300781 C 67.570312 104.519531 67.417969 104.828125 67.417969 105.175781 C 67.417969 105.183594 67.417969 105.191406 67.417969 105.199219 Z M 65.90625 94.890625 C 66.269531 94.6875 66.515625 94.300781 66.515625 93.855469 C 66.515625 93.609375 66.445312 93.386719 66.316406 93.199219 L 73.058594 85.75 C 73.148438 85.8125 73.242188 85.863281 73.34375 85.90625 L 68.613281 103.996094 L 68.601562 103.996094 C 68.503906 103.996094 68.414062 104.007812 68.328125 104.027344 Z M 69.777344 105.242188 C 69.777344 105.21875 69.78125 105.199219 69.78125 105.175781 C 69.78125 104.96875 69.726562 104.769531 69.628906 104.597656 L 75.589844 96.597656 C 75.722656 96.648438 75.867188 96.679688 76.019531 96.679688 C 76.453125 96.679688 76.828125 96.445312 77.035156 96.097656 L 82.679688 97.546875 C 82.703125 97.976562 82.859375 98.363281 83.113281 98.671875 C 80.414062 101.410156 76.816406 103.855469 72.152344 104.898438 C 71.347656 105.078125 70.554688 105.191406 69.777344 105.242188 Z M 74.835938 95.496094 C 74.835938 95.789062 74.945312 96.058594 75.121094 96.265625 L 69.226562 104.179688 C 69.207031 104.164062 69.1875 104.152344 69.167969 104.140625 L 73.902344 86.050781 C 73.964844 86.058594 74.035156 86.0625 74.101562 86.0625 L 74.109375 86.0625 L 75.535156 94.417969 C 75.125 94.605469 74.835938 95.015625 74.835938 95.496094 Z M 74.101562 82.230469 C 73.867188 82.230469 73.644531 82.273438 73.4375 82.351562 L 69.195312 74.671875 C 69.417969 74.453125 69.554688 74.15625 69.554688 73.824219 C 69.554688 73.597656 69.492188 73.390625 69.382812 73.210938 L 76.488281 66.035156 C 77.003906 66.492188 77.609375 66.84375 78.277344 67.058594 L 74.304688 82.242188 C 74.238281 82.234375 74.171875 82.230469 74.101562 82.230469 Z M 62.628906 59.171875 L 65.515625 55.53125 L 67.78125 52.671875 C 68.054688 52.820312 68.363281 52.902344 68.695312 52.902344 C 69.042969 52.902344 69.371094 52.808594 69.652344 52.644531 L 76.039062 58.925781 C 75.933594 59.042969 75.835938 59.164062 75.746094 59.292969 C 75.277344 59.9375 74.957031 60.703125 74.835938 61.53125 L 63.019531 60.5 C 63.023438 60.445312 63.027344 60.394531 63.027344 60.339844 C 63.027344 59.898438 62.878906 59.492188 62.628906 59.171875 Z M 62.882812 61.0625 L 74.785156 62.101562 C 74.785156 62.152344 74.785156 62.203125 74.785156 62.253906 C 74.785156 62.78125 74.863281 63.285156 75.011719 63.765625 L 71.222656 65.191406 C 71.019531 64.828125 70.632812 64.582031 70.1875 64.582031 C 69.863281 64.582031 69.566406 64.71875 69.351562 64.933594 L 62.875 61.085938 C 62.878906 61.078125 62.882812 61.070312 62.882812 61.0625 Z M 70.347656 66.933594 C 70.925781 66.855469 71.371094 66.363281 71.371094 65.765625 L 71.371094 65.75 L 75.214844 64.300781 C 75.433594 64.789062 75.726562 65.238281 76.082031 65.632812 L 68.976562 72.808594 C 68.960938 72.800781 68.949219 72.789062 68.933594 72.78125 Z M 70.253906 49.875 C 69.980469 49.496094 69.574219 49.21875 69.101562 49.117188 L 69.355469 44.589844 C 69.839844 44.496094 70.214844 44.113281 70.296875 43.628906 L 80.074219 42.875 C 80.105469 43.007812 80.152344 43.132812 80.207031 43.253906 Z M 58.824219 39.519531 C 58.917969 39.5 59.015625 39.476562 59.113281 39.457031 C 60.960938 39.074219 62.90625 38.859375 64.9375 38.878906 C 70.417969 38.933594 75.65625 40.308594 80.074219 42.011719 C 80.054688 42.105469 80.039062 42.203125 80.03125 42.304688 L 70.253906 43.054688 C 70.097656 42.585938 69.65625 42.25 69.132812 42.25 C 68.703125 42.25 68.328125 42.480469 68.121094 42.824219 L 58.96875 40.046875 L 58.8125 39.996094 C 58.824219 39.90625 58.832031 39.816406 58.832031 39.71875 C 58.832031 39.652344 58.828125 39.585938 58.824219 39.519531 Z M 58.644531 40.542969 L 58.847656 40.605469 L 67.957031 43.371094 C 67.953125 43.390625 67.953125 43.410156 67.953125 43.429688 C 67.953125 43.960938 68.304688 44.410156 68.785156 44.558594 L 68.53125 49.078125 C 68.082031 49.117188 67.679688 49.308594 67.375 49.601562 L 58.75 41.121094 L 58.46875 40.84375 C 58.535156 40.75 58.59375 40.648438 58.644531 40.542969 Z M 55.191406 40.550781 C 55.371094 40.921875 55.667969 41.230469 56.03125 41.417969 L 53.625 48.464844 C 53.59375 48.460938 53.5625 48.460938 53.527344 48.460938 C 53.078125 48.460938 52.683594 48.710938 52.484375 49.082031 L 44.265625 48.082031 C 44.253906 47.679688 44.117188 47.308594 43.894531 47.003906 C 46.308594 45.027344 50.242188 42.289062 55.191406 40.550781 Z M 59.546875 59.234375 L 44.085938 48.949219 C 44.132812 48.855469 44.167969 48.753906 44.199219 48.652344 L 52.34375 49.644531 C 52.347656 50.292969 52.875 50.820312 53.527344 50.820312 C 53.671875 50.820312 53.8125 50.796875 53.9375 50.746094 L 59.695312 59.050781 C 59.644531 59.109375 59.59375 59.171875 59.546875 59.234375 Z M 60.140625 58.6875 L 54.410156 50.421875 C 54.59375 50.214844 54.707031 49.941406 54.707031 49.640625 C 54.707031 49.226562 54.492188 48.859375 54.167969 48.652344 L 56.574219 41.605469 C 56.6875 41.625 56.800781 41.636719 56.917969 41.636719 C 56.949219 41.636719 56.976562 41.632812 57.007812 41.632812 L 60.40625 58.558594 C 60.3125 58.59375 60.226562 58.640625 60.140625 58.6875 Z M 60.964844 58.429688 L 57.570312 41.519531 C 57.75 41.453125 57.914062 41.363281 58.066406 41.25 L 58.640625 41.816406 L 67.019531 50.058594 C 66.867188 50.332031 66.777344 50.648438 66.777344 50.988281 C 66.777344 51.507812 66.988281 51.980469 67.324219 52.328125 L 65.015625 55.238281 L 62.210938 58.773438 C 61.898438 58.550781 61.519531 58.421875 61.109375 58.421875 C 61.0625 58.421875 61.011719 58.425781 60.964844 58.429688 Z M 62.167969 61.9375 C 62.320312 61.835938 62.457031 61.714844 62.574219 61.574219 L 69.058594 65.425781 C 69.027344 65.535156 69.007812 65.648438 69.007812 65.765625 C 69.007812 66.269531 69.324219 66.699219 69.773438 66.867188 L 68.378906 72.640625 L 68.375 72.640625 C 68.277344 72.640625 68.183594 72.65625 68.09375 72.675781 Z M 64.335938 79.082031 C 65.808594 77.769531 66.960938 76.351562 67.824219 74.871094 C 67.988281 74.953125 68.175781 75.003906 68.375 75.003906 C 68.488281 75.003906 68.597656 74.988281 68.703125 74.957031 L 72.9375 82.628906 C 72.480469 82.980469 72.1875 83.527344 72.1875 84.148438 C 72.1875 84.195312 72.191406 84.242188 72.191406 84.289062 L 58.648438 87.390625 C 58.523438 87.214844 58.351562 87.070312 58.148438 86.984375 C 59.382812 84.386719 61.390625 81.707031 64.335938 79.082031 Z M 83.195312 96.144531 C 82.980469 96.375 82.820312 96.65625 82.738281 96.972656 L 77.199219 95.546875 C 77.199219 95.53125 77.199219 95.515625 77.199219 95.496094 C 77.199219 94.871094 76.714844 94.363281 76.101562 94.320312 L 74.675781 85.976562 C 74.808594 85.933594 74.933594 85.878906 75.050781 85.8125 Z M 75.089844 82.507812 C 75.015625 82.460938 74.941406 82.421875 74.859375 82.386719 L 78.832031 67.203125 C 79.15625 67.269531 79.488281 67.300781 79.832031 67.300781 C 80.386719 67.300781 80.925781 67.210938 81.425781 67.042969 L 83.167969 71.425781 C 82.871094 71.640625 82.675781 71.988281 82.675781 72.382812 C 82.675781 72.644531 82.761719 72.886719 82.90625 73.082031 Z M 83.613281 89.078125 L 75.898438 84.8125 C 75.976562 84.605469 76.019531 84.382812 76.019531 84.144531 C 76.019531 83.65625 75.832031 83.210938 75.53125 82.871094 L 83.347656 73.449219 C 83.433594 73.488281 83.527344 73.523438 83.625 73.542969 L 84.707031 88.375 C 84.265625 88.472656 83.882812 88.726562 83.613281 89.078125 Z M 89.382812 80.625 C 87.964844 83.328125 86.5625 86.125 85.582031 88.382812 C 85.484375 88.359375 85.382812 88.339844 85.28125 88.332031 L 84.199219 73.511719 C 84.289062 73.484375 84.371094 73.449219 84.453125 73.402344 L 88.820312 77.867188 L 89.492188 78.554688 C 89.378906 78.734375 89.316406 78.945312 89.316406 79.171875 C 89.316406 79.515625 89.460938 79.820312 89.691406 80.035156 C 89.589844 80.234375 89.484375 80.429688 89.382812 80.625 Z M 90.769531 78.023438 C 90.679688 78.003906 90.589844 77.992188 90.496094 77.992188 C 90.277344 77.992188 90.074219 78.050781 89.902344 78.152344 L 88.554688 76.777344 L 84.863281 73 C 84.953125 72.855469 85.011719 72.691406 85.03125 72.511719 L 87.101562 72.230469 L 93.246094 71.394531 C 93.355469 71.78125 93.589844 72.117188 93.898438 72.359375 C 93.140625 73.703125 92.003906 75.738281 90.769531 78.023438 Z M 93.574219 69.675781 L 84.363281 64.480469 C 84.691406 63.808594 84.878906 63.054688 84.878906 62.253906 C 84.878906 61.75 84.804688 61.261719 84.664062 60.800781 L 92.015625 58.125 C 92.328125 58.695312 92.917969 59.085938 93.605469 59.117188 L 94.605469 69.003906 C 94.191406 69.109375 93.832031 69.351562 93.574219 69.675781 Z M 93.574219 69.675781 " fill-opacity="1" fill-rule="nonzero"/><path fill="#fff743" d="M 63.667969 49.265625 C 63.667969 49.433594 63.609375 49.578125 63.492188 49.695312 C 63.371094 49.816406 63.226562 49.875 63.058594 49.875 C 62.890625 49.875 62.746094 49.816406 62.628906 49.695312 C 62.507812 49.578125 62.449219 49.433594 62.449219 49.265625 C 62.449219 49.09375 62.507812 48.953125 62.628906 48.832031 C 62.746094 48.714844 62.890625 48.652344 63.058594 48.652344 C 63.226562 48.652344 63.371094 48.714844 63.492188 48.832031 C 63.609375 48.953125 63.667969 49.09375 63.667969 49.265625 Z M 63.667969 49.265625 " fill-opacity="1" fill-rule="nonzero"/><path fill="#fff743" d="M 67.328125 40.683594 C 67.328125 40.871094 67.261719 41.03125 67.128906 41.160156 C 66.996094 41.292969 66.835938 41.359375 66.648438 41.359375 C 66.460938 41.359375 66.300781 41.292969 66.167969 41.160156 C 66.035156 41.03125 65.96875 40.871094 65.96875 40.683594 C 65.96875 40.496094 66.035156 40.335938 66.167969 40.203125 C 66.300781 40.070312 66.460938 40.003906 66.648438 40.003906 C 66.835938 40.003906 66.996094 40.070312 67.128906 40.203125 C 67.261719 40.335938 67.328125 40.496094 67.328125 40.683594 Z M 67.328125 40.683594 " fill-opacity="1" fill-rule="nonzero"/><path fill="#fff743" d="M 80.074219 35.179688 C 80.074219 35.425781 80.027344 35.664062 79.933594 35.890625 C 79.839844 36.117188 79.707031 36.316406 79.535156 36.488281 C 79.359375 36.664062 79.160156 36.796875 78.933594 36.890625 C 78.707031 36.984375 78.46875 37.03125 78.222656 37.03125 C 77.976562 37.03125 77.742188 36.984375 77.515625 36.890625 C 77.289062 36.796875 77.085938 36.664062 76.914062 36.488281 C 76.738281 36.316406 76.605469 36.117188 76.511719 35.890625 C 76.417969 35.664062 76.371094 35.425781 76.371094 35.179688 C 76.371094 34.933594 76.417969 34.699219 76.511719 34.472656 C 76.605469 34.246094 76.738281 34.042969 76.914062 33.871094 C 77.085938 33.695312 77.289062 33.5625 77.515625 33.46875 C 77.742188 33.375 77.976562 33.328125 78.222656 33.328125 C 78.46875 33.328125 78.707031 33.375 78.933594 33.46875 C 79.160156 33.5625 79.359375 33.695312 79.535156 33.871094 C 79.707031 34.042969 79.839844 34.246094 79.933594 34.472656 C 80.027344 34.699219 80.074219 34.933594 80.074219 35.179688 Z M 80.074219 35.179688 " fill-opacity="1" fill-rule="nonzero"/><path fill="#fff743" d="M 102.140625 47.691406 C 102.140625 47.847656 102.085938 47.980469 101.976562 48.09375 C 101.867188 48.203125 101.730469 48.257812 101.574219 48.257812 C 101.417969 48.257812 101.285156 48.203125 101.175781 48.09375 C 101.066406 47.980469 101.011719 47.847656 101.011719 47.691406 C 101.011719 47.535156 101.066406 47.402344 101.175781 47.292969 C 101.285156 47.179688 101.417969 47.125 101.574219 47.125 C 101.730469 47.125 101.867188 47.179688 101.976562 47.292969 C 102.085938 47.402344 102.140625 47.535156 102.140625 47.691406 Z M 102.140625 47.691406 " fill-opacity="1" fill-rule="nonzero"/><path fill="#fff743" d="M 99.285156 56.574219 C 99.285156 56.6875 99.246094 56.785156 99.164062 56.867188 C 99.085938 56.945312 98.988281 56.988281 98.871094 56.988281 C 98.757812 56.988281 98.660156 56.945312 98.582031 56.867188 C 98.5 56.785156 98.460938 56.6875 98.460938 56.574219 C 98.460938 56.457031 98.5 56.363281 98.582031 56.28125 C 98.660156 56.199219 98.757812 56.160156 98.871094 56.160156 C 98.988281 56.160156 99.085938 56.199219 99.164062 56.28125 C 99.246094 56.363281 99.285156 56.457031 99.285156 56.574219 Z M 99.285156 56.574219 " fill-opacity="1" fill-rule="nonzero"/><path fill="#fff743" d="M 90.625 40.003906 C 90.625 40.210938 90.550781 40.390625 90.402344 40.535156 C 90.257812 40.683594 90.078125 40.757812 89.871094 40.757812 C 89.664062 40.757812 89.488281 40.683594 89.339844 40.535156 C 89.195312 40.390625 89.121094 40.210938 89.121094 40.003906 C 89.121094 39.796875 89.195312 39.621094 89.339844 39.472656 C 89.488281 39.328125 89.664062 39.253906 89.871094 39.253906 C 90.078125 39.253906 90.257812 39.328125 90.402344 39.472656 C 90.550781 39.621094 90.625 39.796875 90.625 40.003906 Z M 90.625 40.003906 " fill-opacity="1" fill-rule="nonzero"/><path fill="#fff743" d="M 100.507812 64.980469 C 100.507812 65.121094 100.480469 65.257812 100.425781 65.390625 C 100.371094 65.519531 100.296875 65.636719 100.195312 65.738281 C 100.09375 65.835938 99.980469 65.914062 99.847656 65.96875 C 99.71875 66.023438 99.582031 66.050781 99.4375 66.050781 C 99.296875 66.050781 99.160156 66.023438 99.03125 65.96875 C 98.898438 65.914062 98.78125 65.835938 98.683594 65.738281 C 98.582031 65.636719 98.503906 65.519531 98.449219 65.390625 C 98.398438 65.257812 98.371094 65.121094 98.371094 64.980469 C 98.371094 64.839844 98.398438 64.703125 98.449219 64.570312 C 98.503906 64.441406 98.582031 64.324219 98.683594 64.222656 C 98.78125 64.125 98.898438 64.046875 99.03125 63.992188 C 99.160156 63.9375 99.296875 63.910156 99.4375 63.910156 C 99.582031 63.910156 99.71875 63.9375 99.847656 63.992188 C 99.980469 64.046875 100.09375 64.125 100.195312 64.222656 C 100.296875 64.324219 100.371094 64.441406 100.425781 64.570312 C 100.480469 64.703125 100.507812 64.839844 100.507812 64.980469 Z M 100.507812 64.980469 " fill-opacity="1" fill-rule="nonzero"/><path fill="#fff743" d="M 93.898438 88.460938 C 93.898438 88.71875 93.804688 88.9375 93.625 89.117188 C 93.445312 89.296875 93.226562 89.386719 92.96875 89.386719 C 92.714844 89.386719 92.496094 89.296875 92.316406 89.117188 C 92.132812 88.9375 92.042969 88.71875 92.042969 88.460938 C 92.042969 88.207031 92.132812 87.988281 92.316406 87.808594 C 92.496094 87.625 92.714844 87.535156 92.96875 87.535156 C 93.226562 87.535156 93.445312 87.625 93.625 87.808594 C 93.804688 87.988281 93.898438 88.207031 93.898438 88.460938 Z M 93.898438 88.460938 " fill-opacity="1" fill-rule="nonzero"/><path fill="#fff743" d="M 80.207031 71.78125 C 80.207031 71.949219 80.148438 72.089844 80.03125 72.203125 C 79.914062 72.320312 79.773438 72.378906 79.609375 72.378906 C 79.445312 72.378906 79.304688 72.320312 79.1875 72.203125 C 79.074219 72.089844 79.015625 71.949219 79.015625 71.78125 C 79.015625 71.617188 79.074219 71.476562 79.1875 71.363281 C 79.304688 71.246094 79.445312 71.1875 79.609375 71.1875 C 79.773438 71.1875 79.914062 71.246094 80.03125 71.363281 C 80.148438 71.476562 80.207031 71.617188 80.207031 71.78125 Z M 80.207031 71.78125 " fill-opacity="1" fill-rule="nonzero"/><path fill="#fff743" d="M 82.25 81.289062 C 82.25 81.398438 82.210938 81.492188 82.132812 81.570312 C 82.054688 81.648438 81.960938 81.6875 81.851562 81.6875 C 81.742188 81.6875 81.648438 81.648438 81.570312 81.570312 C 81.496094 81.492188 81.457031 81.398438 81.457031 81.289062 C 81.457031 81.179688 81.496094 81.085938 81.570312 81.007812 C 81.648438 80.929688 81.742188 80.890625 81.851562 80.890625 C 81.960938 80.890625 82.054688 80.929688 82.132812 81.007812 C 82.210938 81.085938 82.25 81.179688 82.25 81.289062 Z M 82.25 81.289062 " fill-opacity="1" fill-rule="nonzero"/><path fill="#fff743" d="M 67.328125 81.570312 C 67.328125 81.757812 67.261719 81.917969 67.128906 82.050781 C 66.996094 82.183594 66.835938 82.25 66.648438 82.25 C 66.460938 82.25 66.300781 82.183594 66.167969 82.050781 C 66.035156 81.917969 65.96875 81.757812 65.96875 81.570312 C 65.96875 81.382812 66.035156 81.222656 66.167969 81.089844 C 66.300781 80.957031 66.460938 80.890625 66.648438 80.890625 C 66.835938 80.890625 66.996094 80.957031 67.128906 81.089844 C 67.261719 81.222656 67.328125 81.382812 67.328125 81.570312 Z M 67.328125 81.570312 " fill-opacity="1" fill-rule="nonzero"/><path fill="#fff743" d="M 78.277344 51.101562 C 78.277344 51.363281 78.183594 51.589844 78 51.773438 C 77.8125 51.960938 77.585938 52.054688 77.324219 52.054688 C 77.0625 52.054688 76.835938 51.960938 76.648438 51.773438 C 76.464844 51.589844 76.371094 51.363281 76.371094 51.101562 C 76.371094 50.835938 76.464844 50.613281 76.648438 50.425781 C 76.835938 50.238281 77.0625 50.148438 77.324219 50.148438 C 77.585938 50.148438 77.8125 50.238281 78 50.425781 C 78.183594 50.613281 78.277344 50.835938 78.277344 51.101562 Z M 78.277344 51.101562 " fill-opacity="1" fill-rule="nonzero"/><path fill="#fff743" d="M 100.597656 37.804688 C 100.597656 37.976562 100.566406 38.144531 100.5 38.304688 C 100.433594 38.46875 100.335938 38.609375 100.214844 38.730469 C 100.089844 38.855469 99.949219 38.949219 99.789062 39.015625 C 99.628906 39.082031 99.460938 39.117188 99.285156 39.117188 C 99.113281 39.117188 98.945312 39.082031 98.785156 39.015625 C 98.625 38.949219 98.480469 38.855469 98.359375 38.730469 C 98.234375 38.609375 98.140625 38.46875 98.074219 38.304688 C 98.007812 38.144531 97.972656 37.976562 97.972656 37.804688 C 97.972656 37.628906 98.007812 37.460938 98.074219 37.300781 C 98.140625 37.140625 98.234375 37 98.359375 36.875 C 98.480469 36.753906 98.625 36.65625 98.785156 36.589844 C 98.945312 36.523438 99.113281 36.492188 99.285156 36.492188 C 99.460938 36.492188 99.628906 36.523438 99.789062 36.589844 C 99.949219 36.65625 100.089844 36.753906 100.214844 36.875 C 100.335938 37 100.433594 37.140625 100.5 37.300781 C 100.566406 37.460938 100.597656 37.628906 100.597656 37.804688 Z M 100.597656 37.804688 " fill-opacity="1" fill-rule="nonzero"/><g mask="url(#9e4770e5cf)"><g transform="matrix(1, 0, 0, 1, 31, 58)"><g clip-path="url(#8d731cbc85)"><g clip-path="url(#83b6fe877e)"><path fill="#fff743" d="M 19.609375 59.210938 C 20.160156 58.472656 28.546875 47.03125 20.757812 46.097656 C 20.566406 46.074219 20.367188 46.058594 20.15625 46.046875 C 11.066406 45.613281 7.429688 45.632812 8.851562 40.476562 C 9.738281 37.253906 8.609375 35.816406 7.640625 35.195312 C 7.167969 34.890625 7.132812 34.214844 7.554688 33.84375 L 9.167969 32.425781 L 7.058594 31.882812 C 6.207031 31.664062 5.75 30.738281 6.097656 29.933594 C 6.527344 28.945312 6.777344 27.753906 5.796875 27.320312 C 4.828125 26.890625 3.105469 26.324219 1.726562 25.894531 C 0.75 25.589844 0.398438 24.394531 1.050781 23.613281 C 3.308594 20.90625 7.558594 15.542969 8.324219 12.636719 C 9.085938 9.734375 7.390625 4.570312 6.558594 0.601562 C 6.554688 0.601562 6.554688 0.597656 6.554688 0.597656 C 6.554688 0.597656 6.558594 0.597656 6.558594 0.597656 L 19.316406 3.894531 L 23.914062 5.082031 C 24.996094 5.359375 25.953125 6.003906 26.621094 6.902344 L 26.710938 7.015625 L 32.25 14.21875 C 32.710938 14.820312 32.804688 15.621094 32.5 16.316406 L 30.507812 20.847656 C 30.507812 20.847656 12.527344 38.523438 25.589844 45.398438 C 38.648438 52.273438 43.585938 45.601562 56.445312 47.5625 C 44.847656 47.671875 32.691406 50.828125 19.578125 59.25 C 19.582031 59.25 19.582031 59.246094 19.582031 59.246094 Z M 19.609375 59.210938 " fill-opacity="1" fill-rule="nonzero"/></g></g></g></g><g mask="url(#95b6cec51b)"><g transform="matrix(1, 0, 0, 1, 31, 58)"><g clip-path="url(#36399b7ef5)"><g clip-path="url(#45440a19eb)"><path fill="#000000" d="M 24.554688 26.847656 C 19.019531 37.449219 19.507812 43.207031 20.757812 46.097656 C 20.566406 46.074219 20.367188 46.058594 20.15625 46.046875 C 11.066406 45.613281 7.429688 45.632812 8.851562 40.476562 C 9.738281 37.253906 8.609375 35.816406 7.640625 35.195312 C 7.167969 34.890625 7.132812 34.214844 7.554688 33.84375 L 9.167969 32.425781 L 7.058594 31.882812 C 6.207031 31.664062 5.75 30.738281 6.097656 29.933594 C 6.527344 28.945312 6.777344 27.753906 5.796875 27.320312 C 4.828125 26.890625 3.105469 26.324219 1.726562 25.894531 C 0.75 25.589844 0.398438 24.394531 1.050781 23.613281 C 3.308594 20.90625 7.558594 15.542969 8.324219 12.636719 C 9.085938 9.734375 7.390625 4.570312 6.558594 0.601562 C 6.554688 0.601562 6.554688 0.597656 6.554688 0.597656 C 6.554688 0.597656 6.558594 0.597656 6.558594 0.597656 L 19.316406 3.894531 L 23.914062 5.082031 C 24.996094 5.359375 25.953125 6.003906 26.621094 6.902344 L 26.710938 7.015625 C 28.65625 10.445312 29.867188 16.667969 24.554688 26.847656 Z M 24.554688 26.847656 " fill-opacity="1" fill-rule="nonzero"/></g></g></g></g><g mask="url(#351d731465)"><g transform="matrix(1, 0, 0, 1, 31, 58)"><g clip-path="url(#a1a87312b3)"><g clip-path="url(#f552e80199)"><path fill="#fff743" d="M 19.609375 59.210938 C 20.171875 58.457031 28.960938 46.46875 20.15625 46.046875 C 11.066406 45.613281 7.429688 45.632812 8.851562 40.476562 C 9.738281 37.253906 8.609375 35.816406 7.640625 35.195312 C 7.167969 34.890625 7.132812 34.214844 7.554688 33.84375 L 9.167969 32.425781 L 7.058594 31.882812 C 6.207031 31.664062 5.75 30.738281 6.097656 29.933594 C 6.527344 28.945312 6.777344 27.753906 5.796875 27.320312 C 4.828125 26.890625 3.105469 26.324219 1.726562 25.894531 C 0.75 25.589844 0.398438 24.394531 1.050781 23.613281 C 3.308594 20.90625 7.558594 15.542969 8.324219 12.636719 C 9.085938 9.734375 7.390625 4.570312 6.558594 0.601562 C 6.554688 0.601562 6.554688 0.597656 6.554688 0.597656 C 6.554688 0.597656 6.558594 0.597656 6.558594 0.597656 L 19.316406 3.894531 L 20.976562 6.4375 C 24.015625 11.09375 24.382812 17.003906 21.9375 21.996094 L 19.160156 27.679688 C 15.914062 34.308594 19.136719 42.289062 26.070312 44.816406 C 29.0625 45.90625 29.839844 49.773438 27.5 51.933594 Z M 19.609375 59.210938 " fill-opacity="1" fill-rule="nonzero"/></g></g></g></g><g mask="url(#f91d46ae8f)"><g transform="matrix(1, 0, 0, 1, 41, 50)"><g clip-path="url(#2b5878408f)"><g clip-path="url(#018091403a)"><path fill="#000000" d="M 23.722656 24.332031 C 24.214844 23.636719 24.234375 22.710938 23.765625 21.996094 L 17.792969 12.875 C 17.371094 12.222656 16.796875 11.6875 16.125 11.300781 L 0.640625 2.449219 C 2.15625 1.800781 3.648438 1.316406 5.097656 0.976562 L 18.394531 10.632812 C 18.785156 10.914062 19.105469 11.285156 19.324219 11.710938 L 24.414062 21.535156 C 25.011719 22.683594 24.828125 24.082031 23.960938 25.039062 L 20.507812 28.84375 Z M 23.722656 24.332031 " fill-opacity="1" fill-rule="nonzero"/></g></g></g></g><path fill="#fff743" d="M 64.722656 74.332031 C 65.214844 73.636719 65.234375 72.710938 64.765625 71.996094 L 58.792969 62.875 C 58.371094 62.222656 57.796875 61.6875 57.125 61.300781 L 41.640625 52.449219 C 43.15625 51.800781 44.648438 51.316406 46.097656 50.976562 L 59.394531 60.632812 C 59.785156 60.914062 60.105469 61.285156 60.324219 61.710938 L 65.414062 71.535156 C 66.011719 72.683594 65.828125 74.082031 64.960938 75.039062 L 61.507812 78.84375 Z M 64.722656 74.332031 " fill-opacity="1" fill-rule="nonzero"/><g mask="url(#1355477c2a)"><g transform="matrix(1, 0, 0, 1, 31, 58)"><g clip-path="url(#ca108483c6)"><g clip-path="url(#9c2e5b9e14)"><path fill="#fff743" d="M 26.488281 49.636719 C 26.488281 50.652344 26.140625 51.683594 25.402344 52.535156 L 19.609375 59.210938 C 20.089844 58.5625 26.632812 49.644531 22.914062 46.859375 C 22.691406 46.691406 22.433594 46.546875 22.128906 46.425781 C 21.601562 46.21875 20.953125 46.085938 20.15625 46.046875 C 11.066406 45.613281 7.429688 45.632812 8.851562 40.476562 C 9.738281 37.253906 8.609375 35.816406 7.640625 35.195312 C 7.167969 34.890625 7.132812 34.214844 7.554688 33.84375 L 9.167969 32.425781 L 7.058594 31.882812 C 6.207031 31.664062 5.75 30.738281 6.097656 29.933594 C 6.527344 28.945312 6.777344 27.753906 5.796875 27.320312 C 4.828125 26.890625 3.105469 26.324219 1.726562 25.894531 C 0.75 25.589844 0.398438 24.394531 1.050781 23.613281 C 2.785156 21.535156 5.6875 17.898438 7.292969 15 C 7.777344 14.121094 8.144531 13.3125 8.324219 12.636719 C 9.085938 9.734375 7.390625 4.570312 6.558594 0.601562 C 6.554688 0.601562 6.554688 0.597656 6.554688 0.597656 C 6.558594 0.597656 6.558594 0.597656 6.558594 0.597656 L 12.628906 8.152344 C 16.304688 12.726562 17.535156 18.804688 15.921875 24.449219 L 14.78125 28.441406 C 12.730469 35.625 16.6875 43.152344 23.765625 45.539062 C 25.507812 46.269531 26.488281 47.933594 26.488281 49.636719 Z M 26.488281 49.636719 " fill-opacity="1" fill-rule="nonzero"/></g></g></g></g><path fill="#fff743" d="M 53.128906 104.425781 C 52.601562 104.21875 51.953125 104.085938 51.15625 104.046875 C 42.066406 103.613281 38.429688 103.632812 39.851562 98.476562 C 40.738281 95.253906 39.609375 93.816406 38.640625 93.195312 C 38.167969 92.890625 38.132812 92.214844 38.554688 91.84375 L 40.167969 90.425781 L 38.058594 89.882812 C 37.207031 89.664062 36.75 88.738281 37.097656 87.933594 C 37.527344 86.945312 37.777344 85.753906 36.796875 85.320312 C 35.828125 84.890625 34.105469 84.324219 32.726562 83.894531 C 31.75 83.589844 31.398438 82.394531 32.050781 81.613281 C 33.785156 79.535156 36.6875 75.898438 38.292969 73 C 40.789062 76.304688 42.210938 80.339844 42.292969 84.542969 L 42.378906 88.925781 C 42.496094 94.917969 45.804688 100.390625 51.050781 103.285156 Z M 53.128906 104.425781 " fill-opacity="1" fill-rule="nonzero"/><g mask="url(#10c1c4faf6)"><g transform="matrix(1, 0, 0, 1, 58, 38)"><g clip-path="url(#f5f53868d2)"><g clip-path="url(#246f6c6026)"><path fill="#fff743" d="M 37.175781 30.945312 L 36.175781 21.0625 C 37.003906 20.851562 37.613281 20.101562 37.613281 19.207031 C 37.613281 18.179688 36.808594 17.34375 35.792969 17.296875 L 35.238281 11.808594 C 35.726562 11.582031 36.054688 11.070312 36.003906 10.488281 C 35.949219 9.863281 35.449219 9.351562 34.828125 9.289062 C 34.496094 9.253906 34.1875 9.339844 33.941406 9.511719 C 32.585938 8.597656 29.992188 6.960938 26.597656 5.328125 C 26.335938 5.203125 26.066406 5.078125 25.789062 4.949219 C 25.878906 4.609375 25.890625 4.238281 25.753906 3.84375 C 25.5 3.109375 24.828125 2.574219 24.050781 2.53125 C 23.304688 2.488281 22.640625 2.878906 22.292969 3.472656 C 17.980469 1.816406 12.609375 0.363281 6.945312 0.308594 C 5.070312 0.292969 3.179688 0.472656 1.277344 0.851562 C 1.222656 1.050781 1.164062 1.253906 1.113281 1.457031 C 2.960938 1.074219 4.90625 0.859375 6.9375 0.878906 C 12.417969 0.933594 17.65625 2.308594 22.074219 4.011719 C 22.054688 4.105469 22.039062 4.203125 22.03125 4.304688 L 12.253906 5.054688 C 12.097656 4.585938 11.65625 4.25 11.132812 4.25 C 10.703125 4.25 10.328125 4.480469 10.121094 4.824219 L 0.96875 2.046875 C 0.925781 2.230469 0.886719 2.417969 0.847656 2.605469 L 9.957031 5.371094 C 9.953125 5.390625 9.953125 5.410156 9.953125 5.429688 C 9.953125 5.960938 10.304688 6.410156 10.785156 6.558594 L 10.53125 11.078125 C 10.082031 11.117188 9.679688 11.308594 9.375 11.601562 L 0.75 3.121094 C 0.710938 3.351562 0.671875 3.582031 0.640625 3.816406 L 9.019531 12.058594 C 8.867188 12.332031 8.777344 12.648438 8.777344 12.988281 C 8.777344 13.507812 8.988281 13.980469 9.324219 14.328125 L 7.015625 17.238281 C 7.179688 17.335938 7.34375 17.433594 7.515625 17.53125 L 9.78125 14.671875 C 10.054688 14.820312 10.363281 14.902344 10.695312 14.902344 C 11.042969 14.902344 11.371094 14.808594 11.652344 14.644531 L 18.039062 20.925781 C 17.933594 21.042969 17.835938 21.164062 17.746094 21.292969 C 20.992188 22.742188 23.546875 24.957031 25.550781 27.664062 C 25.746094 27.449219 25.921875 27.222656 26.078125 26.980469 L 35.292969 32.175781 C 35.214844 32.378906 35.171875 32.597656 35.167969 32.828125 L 28.882812 33.683594 C 28.957031 33.863281 29.03125 34.046875 29.101562 34.230469 L 35.246094 33.394531 C 35.355469 33.78125 35.589844 34.117188 35.898438 34.359375 C 35.140625 35.703125 34.003906 37.738281 32.769531 40.023438 C 32.679688 40.003906 32.589844 39.992188 32.496094 39.992188 C 32.277344 39.992188 32.074219 40.050781 31.902344 40.152344 L 30.554688 38.777344 C 30.648438 39.136719 30.738281 39.503906 30.820312 39.867188 C 31.03125 40.78125 31.21875 41.703125 31.382812 42.625 C 31.4375 42.9375 31.488281 43.25 31.539062 43.5625 C 31.757812 43.144531 31.976562 42.726562 32.195312 42.3125 C 32.425781 42.375 32.6875 42.375 32.960938 42.25 C 33.359375 42.070312 33.644531 41.6875 33.675781 41.253906 C 33.699219 40.867188 33.539062 40.519531 33.277344 40.289062 C 34.503906 38.011719 35.640625 35.980469 36.394531 34.644531 C 36.667969 34.75 36.972656 34.796875 37.292969 34.761719 C 38.226562 34.65625 38.960938 33.867188 38.996094 32.929688 C 39.035156 31.871094 38.214844 30.996094 37.175781 30.945312 Z M 34.675781 11.929688 L 35.222656 17.351562 C 34.910156 17.433594 34.632812 17.589844 34.402344 17.800781 L 28.523438 13.078125 C 28.589844 12.929688 28.628906 12.761719 28.628906 12.585938 C 28.628906 12.550781 28.628906 12.519531 28.625 12.488281 L 33.472656 11.140625 C 33.679688 11.601562 34.136719 11.925781 34.675781 11.929688 Z M 25.546875 5.484375 C 29.257812 7.199219 32.085938 8.960938 33.542969 9.9375 C 33.433594 10.125 33.367188 10.34375 33.363281 10.578125 L 28.441406 11.945312 C 28.230469 11.621094 27.867188 11.40625 27.449219 11.40625 C 27.375 11.40625 27.300781 11.414062 27.226562 11.425781 L 24.945312 6.074219 C 25.1875 5.921875 25.394531 5.722656 25.546875 5.484375 Z M 11.101562 11.117188 L 11.355469 6.589844 C 11.839844 6.496094 12.214844 6.113281 12.296875 5.628906 L 22.074219 4.875 C 22.105469 5.007812 22.152344 5.132812 22.207031 5.253906 L 12.253906 11.875 C 11.980469 11.496094 11.574219 11.21875 11.101562 11.117188 Z M 21.832031 19.207031 C 20.523438 19.207031 19.335938 19.703125 18.4375 20.515625 L 12.101562 14.285156 C 12.417969 13.941406 12.609375 13.488281 12.609375 12.988281 C 12.609375 12.777344 12.574219 12.578125 12.515625 12.386719 L 22.523438 5.730469 C 22.769531 6 23.089844 6.199219 23.457031 6.292969 L 22.082031 19.214844 C 21.996094 19.210938 21.914062 19.207031 21.832031 19.207031 Z M 22.648438 19.273438 L 24.027344 6.355469 C 24.160156 6.347656 24.292969 6.328125 24.417969 6.296875 L 26.707031 11.667969 C 26.441406 11.882812 26.269531 12.214844 26.269531 12.585938 C 26.269531 12.921875 26.414062 13.230469 26.640625 13.445312 L 23.730469 19.578125 C 23.386719 19.4375 23.027344 19.335938 22.648438 19.273438 Z M 24.25 19.824219 L 27.140625 13.722656 C 27.242188 13.75 27.34375 13.765625 27.449219 13.765625 C 27.71875 13.765625 27.964844 13.675781 28.164062 13.527344 L 34.042969 18.246094 C 33.878906 18.527344 33.78125 18.855469 33.78125 19.207031 C 33.78125 19.335938 33.796875 19.464844 33.820312 19.585938 L 26.46875 22.261719 C 26.023438 21.222656 25.238281 20.363281 24.25 19.824219 Z M 35.574219 31.675781 L 26.363281 26.480469 C 26.691406 25.808594 26.878906 25.054688 26.878906 24.253906 C 26.878906 23.75 26.804688 23.261719 26.664062 22.800781 L 34.015625 20.125 C 34.328125 20.695312 34.917969 21.085938 35.605469 21.117188 L 36.605469 31.003906 C 36.191406 31.109375 35.832031 31.351562 35.574219 31.675781 Z M 35.574219 31.675781 " fill-opacity="1" fill-rule="nonzero"/></g></g></g></g><g fill="#ed3c6b" fill-opacity="1"><g transform="translate(109.789054, 68.133062)"><g><path d="M 0 0 L 6.71875 -22.9375 L 16.1875 -22.9375 L 22.90625 0 L 16.75 0 L 15.59375 -4.578125 L 7.3125 -4.578125 L 6.15625 0 Z M 8.46875 -9.0625 L 14.4375 -9.0625 L 12.015625 -18.546875 L 10.890625 -18.546875 Z M 8.46875 -9.0625 "/></g></g></g><g fill="#ed3c6b" fill-opacity="1"><g transform="translate(135.80333, 68.133062)"><g><path d="M 1.25 0 L 1.25 -4.390625 L 3.796875 -4.390625 L 3.734375 -18.546875 L 1.25 -18.546875 L 1.25 -22.9375 L 11.828125 -22.9375 L 11.828125 -18.546875 L 9.3125 -18.546875 L 9.25 -4.390625 L 11.828125 -4.390625 L 11.828125 0 Z M 1.25 0 "/></g></g></g><g fill="#ed3c6b" fill-opacity="1"><g transform="translate(151.984988, 68.133062)"><g/></g></g><g fill="#ed3c6b" fill-opacity="1"><g transform="translate(162.752474, 68.133062)"><g><path d="M 2.171875 0 L 2.171875 -22.9375 L 17.515625 -22.9375 L 20.984375 -19.484375 L 20.984375 -10.640625 L 17.515625 -7.1875 L 8 -7.1875 L 8 0 Z M 8 -11.609375 L 14.25 -11.609375 L 15.34375 -12.703125 L 15.34375 -17.4375 L 14.25 -18.515625 L 8 -18.515625 Z M 8 -11.609375 "/></g></g></g><g fill="#ed3c6b" fill-opacity="1"><g transform="translate(187.304308, 68.133062)"><g><path d="M 2.171875 0 L 2.171875 -22.9375 L 17.796875 -22.9375 L 21.296875 -19.484375 L 21.296875 -11.265625 L 18.671875 -8.65625 L 22.15625 0 L 16.3125 0 L 13.296875 -7.8125 L 8 -7.8125 L 8 0 Z M 8 -12.234375 L 14.53125 -12.234375 L 15.625 -13.328125 L 15.625 -17.4375 L 14.53125 -18.515625 L 8 -18.515625 Z M 8 -12.234375 "/></g></g></g><g fill="#ed3c6b" fill-opacity="1"><g transform="translate(213.50528, 68.133062)"><g><path d="M 5.015625 0 L 1.5625 -3.453125 L 1.5625 -19.484375 L 5.015625 -22.9375 L 18.453125 -22.9375 L 21.90625 -19.484375 L 21.90625 -3.453125 L 18.453125 0 Z M 8.5 -4.421875 L 15.03125 -4.421875 L 16.125 -5.515625 L 16.125 -17.4375 L 14.96875 -18.515625 L 8.5 -18.515625 L 7.375 -17.4375 L 7.375 -5.515625 Z M 8.5 -4.421875 "/></g></g></g><g fill="#ed3c6b" fill-opacity="1"><g transform="translate(240.079633, 68.133062)"><g><path d="M 2.171875 0 L 2.171875 -22.9375 L 7.875 -22.9375 L 13.78125 -9 L 19.703125 -22.9375 L 25.359375 -22.9375 L 25.359375 0 L 19.953125 0 L 19.953125 -12.609375 L 15.15625 -1 L 12.421875 -1 L 7.59375 -12.609375 L 7.59375 0 Z M 2.171875 0 "/></g></g></g><g fill="#ed3c6b" fill-opacity="1"><g transform="translate(270.730173, 68.133062)"><g><path d="M 2.171875 0 L 2.171875 -22.9375 L 17.515625 -22.9375 L 20.984375 -19.484375 L 20.984375 -10.640625 L 17.515625 -7.1875 L 8 -7.1875 L 8 0 Z M 8 -11.609375 L 14.25 -11.609375 L 15.34375 -12.703125 L 15.34375 -17.4375 L 14.25 -18.515625 L 8 -18.515625 Z M 8 -11.609375 "/></g></g></g><g fill="#ed3c6b" fill-opacity="1"><g transform="translate(295.282008, 68.133062)"><g><path d="M 6.5625 0 L 6.5625 -18.203125 L 0.15625 -18.203125 L 0.15625 -22.9375 L 18.796875 -22.9375 L 18.796875 -18.203125 L 12.390625 -18.203125 L 12.390625 0 Z M 6.5625 0 "/></g></g></g><g fill="#ed3c6b" fill-opacity="1"><g transform="translate(317.344571, 68.133062)"><g><path d="M 2.296875 0 L 2.296875 -4.671875 L 14.25 -4.671875 L 15.34375 -5.765625 L 15.34375 -8.3125 L 14.25 -9.40625 L 4.859375 -9.40625 L 1.40625 -12.890625 L 1.40625 -19.484375 L 4.859375 -22.9375 L 19.859375 -22.9375 L 19.859375 -18.265625 L 8.21875 -18.265625 L 7.125 -17.1875 L 7.125 -15.15625 L 8.21875 -14.0625 L 17.609375 -14.0625 L 21.078125 -10.609375 L 21.078125 -3.453125 L 17.609375 0 Z M 2.296875 0 "/></g></g></g><g fill="#ed3c6b" fill-opacity="1"><g transform="translate(186.076398, 105.042831)"><g><path d="M 2.171875 0 L 2.171875 -22.9375 L 8 -22.9375 L 8 -14.40625 L 15.8125 -14.40625 L 15.8125 -22.9375 L 21.625 -22.9375 L 21.625 0 L 15.8125 0 L 15.8125 -9.859375 L 8 -9.859375 L 8 0 Z M 2.171875 0 "/></g></g></g><g fill="#ed3c6b" fill-opacity="1"><g transform="translate(212.993036, 105.042831)"><g><path d="M 5.421875 0 L 2.015625 -3.453125 L 2.015625 -22.9375 L 7.84375 -22.9375 L 7.84375 -5.515625 L 8.9375 -4.421875 L 15.25 -4.421875 L 16.34375 -5.515625 L 16.34375 -22.9375 L 22.15625 -22.9375 L 22.15625 -3.453125 L 18.703125 0 Z M 5.421875 0 "/></g></g></g><g fill="#ed3c6b" fill-opacity="1"><g transform="translate(240.283062, 105.042831)"><g><path d="M 2.171875 0 L 2.171875 -22.9375 L 17.5 -22.9375 L 20.953125 -19.484375 L 20.953125 -13.96875 L 19.390625 -12.390625 L 21.84375 -10.078125 L 21.84375 -3.453125 L 18.390625 0 Z M 8 -14.03125 L 14.28125 -14.03125 L 15.375 -15.125 L 15.375 -17.4375 L 14.28125 -18.515625 L 8 -18.515625 Z M 8 -4.421875 L 14.9375 -4.421875 L 16.03125 -5.515625 L 16.03125 -8.90625 L 14.9375 -9.984375 L 8 -9.984375 Z M 8 -4.421875 "/></g></g></g></svg>