<svg xmlns="http://www.w3.org/2000/svg" xmlns:xlink="http://www.w3.org/1999/xlink" width="500" zoomAndPan="magnify" viewBox="0 0 375 374.999991" height="500" preserveAspectRatio="xMidYMid meet" version="1.0"><defs><filter x="0%" y="0%" width="100%" height="100%" id="92fc7ae495"><feColorMatrix values="0 0 0 0 1 0 0 0 0 1 0 0 0 0 1 0 0 0 1 0" color-interpolation-filters="sRGB"/></filter><mask id="256047857c"><g filter="url(#92fc7ae495)"><rect x="-37.5" width="450" fill="#000000" y="-37.499999" height="449.999989" fill-opacity="0.28"/></g></mask><clipPath id="98580e81e5"><path d="M 1 1 L 222.558594 1 L 222.558594 234.441406 L 1 234.441406 Z M 1 1 " clip-rule="nonzero"/></clipPath><clipPath id="079ee206d8"><rect x="0" width="223" y="0" height="235"/></clipPath><mask id="0b955357d9"><g filter="url(#92fc7ae495)"><rect x="-37.5" width="450" fill="#000000" y="-37.499999" height="449.999989" fill-opacity="0.1"/></g></mask><clipPath id="b905385448"><rect x="0" width="112" y="0" height="183"/></clipPath><mask id="65fb7ac0a9"><g filter="url(#92fc7ae495)"><rect x="-37.5" width="450" fill="#000000" y="-37.499999" height="449.999989" fill-opacity="0.5"/></g></mask><clipPath id="3d3a48d9a8"><path d="M 1 1 L 113 1 L 113 234.441406 L 1 234.441406 Z M 1 1 " clip-rule="nonzero"/></clipPath><clipPath id="afeb5302ce"><rect x="0" width="114" y="0" height="235"/></clipPath><mask id="816afb2fb9"><g filter="url(#92fc7ae495)"><rect x="-37.5" width="450" fill="#000000" y="-37.499999" height="449.999989" fill-opacity="0.21"/></g></mask><clipPath id="cd9904badb"><path d="M 0.398438 1 L 96.640625 1 L 96.640625 112 L 0.398438 112 Z M 0.398438 1 " clip-rule="nonzero"/></clipPath><clipPath id="c56dc96c13"><rect x="0" width="97" y="0" height="113"/></clipPath><mask id="756133b84e"><g filter="url(#92fc7ae495)"><rect x="-37.5" width="450" fill="#000000" y="-37.499999" height="449.999989" fill-opacity="0.51"/></g></mask><clipPath id="c8ea3297f9"><path d="M 1 1 L 103.761719 1 L 103.761719 234.441406 L 1 234.441406 Z M 1 1 " clip-rule="nonzero"/></clipPath><clipPath id="84fb8320f9"><rect x="0" width="104" y="0" height="235"/></clipPath><mask id="94eb14d97a"><g filter="url(#92fc7ae495)"><rect x="-37.5" width="450" fill="#000000" y="-37.499999" height="449.999989" fill-opacity="0.42"/></g></mask><clipPath id="2fb35a352f"><path d="M 1 0.761719 L 153.480469 0.761719 L 153.480469 172.601562 L 1 172.601562 Z M 1 0.761719 " clip-rule="nonzero"/></clipPath><clipPath id="b95e976f82"><rect x="0" width="154" y="0" height="173"/></clipPath></defs><path fill="#d11d4d" d="M 299.023438 163.480469 L 295.050781 124.242188 C 298.335938 123.40625 300.769531 120.433594 300.769531 116.886719 C 300.769531 112.808594 297.5625 109.496094 293.535156 109.296875 L 291.332031 87.515625 C 293.269531 86.625 294.574219 84.59375 294.371094 82.277344 C 294.164062 79.800781 292.167969 77.769531 289.699219 77.515625 C 288.390625 77.378906 287.167969 77.726562 286.183594 78.398438 C 280.808594 74.777344 270.515625 68.277344 257.039062 61.800781 C 256 61.304688 254.925781 60.800781 253.824219 60.289062 C 254.191406 58.945312 254.234375 57.46875 253.695312 55.90625 C 252.683594 52.984375 250.015625 50.867188 246.933594 50.691406 C 243.960938 50.523438 241.335938 52.070312 239.945312 54.429688 C 222.839844 47.859375 201.519531 42.09375 179.03125 41.871094 C 171.597656 41.804688 164.089844 42.53125 156.542969 44.035156 C 155.757812 44.1875 154.972656 44.355469 154.179688 44.527344 C 153.03125 41.792969 150.324219 39.871094 147.171875 39.871094 C 142.972656 39.871094 139.566406 43.277344 139.566406 47.480469 C 139.566406 47.886719 139.609375 48.285156 139.667969 48.675781 C 135.621094 50.097656 131.566406 51.734375 127.515625 53.601562 C 113.316406 60.148438 101.941406 68.128906 93.851562 74.765625 C 92.339844 73.660156 90.410156 73.089844 88.335938 73.363281 C 84.90625 73.820312 82.175781 76.617188 81.804688 80.054688 C 81.3125 84.632812 84.886719 88.507812 89.363281 88.507812 C 91.597656 88.507812 93.59375 87.535156 94.988281 86.007812 L 104.230469 92.152344 C 98.46875 93.5 92.558594 95.433594 86.535156 98.007812 L 147.992188 133.132812 C 150.664062 134.660156 152.933594 136.800781 154.625 139.378906 L 178.328125 175.585938 C 180.183594 178.421875 180.113281 182.101562 178.148438 184.859375 L 165.386719 202.777344 L 173.304688 184.792969 C 174.515625 182.039062 174.128906 178.851562 172.300781 176.46875 L 150.320312 147.886719 L 149.96875 147.425781 C 147.3125 143.859375 143.519531 141.308594 139.21875 140.203125 L 120.972656 135.492188 L 70.335938 122.40625 C 70.332031 122.398438 70.328125 122.398438 70.328125 122.398438 C 70.328125 122.398438 70.328125 122.398438 70.328125 122.40625 C 70.328125 122.410156 70.328125 122.417969 70.332031 122.425781 C 73.632812 138.171875 80.371094 158.671875 77.339844 170.183594 C 74.304688 181.730469 57.441406 203.015625 48.476562 213.753906 C 45.886719 216.863281 47.28125 221.609375 51.152344 222.816406 C 56.621094 224.519531 63.472656 226.765625 67.316406 228.464844 C 71.210938 230.183594 70.207031 234.917969 68.503906 238.839844 C 67.117188 242.035156 68.945312 245.714844 72.320312 246.578125 L 80.6875 248.730469 L 74.285156 254.355469 C 72.617188 255.828125 72.761719 258.523438 74.632812 259.722656 C 78.484375 262.195312 82.957031 267.894531 79.429688 280.691406 C 73.792969 301.160156 88.222656 301.082031 124.3125 302.800781 C 125.140625 302.835938 125.933594 302.902344 126.6875 302.992188 C 157.613281 306.707031 124.316406 352.125 122.128906 355.054688 L 122.03125 355.1875 C 122.027344 355.191406 122.023438 355.199219 122.019531 355.203125 C 174.066406 321.773438 222.304688 309.25 268.34375 308.816406 C 268.34375 308.816406 262.878906 297.777344 259.425781 283.84375 C 262.304688 282.878906 264.417969 280.25 264.605469 277.09375 C 264.863281 272.878906 261.394531 269.113281 257.167969 269.03125 C 255.742188 269 254.40625 269.367188 253.257812 270.027344 L 220.925781 229.007812 C 221.097656 228.828125 221.253906 228.636719 221.40625 228.441406 L 252.035156 245.367188 C 251.535156 246.714844 251.382812 248.230469 251.777344 249.828125 C 252.554688 252.972656 255.304688 255.324219 258.53125 255.582031 C 263.011719 255.945312 266.765625 252.414062 266.765625 248.003906 C 266.765625 245.230469 265.273438 242.804688 263.046875 241.480469 C 266.589844 233.324219 271.535156 223.367188 276.652344 213.550781 C 277.515625 211.894531 278.386719 210.234375 279.253906 208.59375 C 280.179688 208.839844 281.207031 208.839844 282.296875 208.351562 C 283.882812 207.636719 285.011719 206.117188 285.125 204.386719 C 285.230469 202.855469 284.59375 201.476562 283.550781 200.554688 C 288.425781 191.523438 292.929688 183.460938 295.921875 178.15625 C 297.015625 178.578125 298.222656 178.765625 299.492188 178.621094 C 303.195312 178.207031 306.113281 175.070312 306.253906 171.347656 C 306.402344 167.148438 303.144531 163.679688 299.023438 163.480469 Z M 289.09375 87.996094 L 291.273438 109.523438 C 290.039062 109.84375 288.925781 110.460938 288.015625 111.296875 L 264.675781 92.558594 C 264.949219 91.964844 265.109375 91.300781 265.109375 90.601562 C 265.109375 90.472656 265.101562 90.347656 265.089844 90.222656 L 284.332031 84.867188 C 285.144531 86.699219 286.96875 87.976562 289.09375 87.996094 Z M 285.707031 118.390625 L 256.527344 129.007812 C 254.753906 124.882812 251.636719 121.472656 247.71875 119.332031 L 259.199219 95.125 C 259.589844 95.226562 260 95.292969 260.417969 95.292969 C 261.484375 95.292969 262.464844 94.929688 263.253906 94.335938 L 286.589844 113.066406 C 285.9375 114.191406 285.554688 115.496094 285.554688 116.886719 C 285.554688 117.402344 285.613281 117.902344 285.707031 118.390625 Z M 254.980469 147.734375 L 291.546875 168.363281 C 291.242188 169.167969 291.066406 170.035156 291.054688 170.949219 L 266.113281 174.339844 L 258.453125 175.378906 C 257.761719 173.652344 256.074219 172.433594 254.101562 172.433594 C 253.886719 172.433594 253.679688 172.449219 253.480469 172.476562 L 246.5625 155.085938 C 248.972656 153.964844 251.121094 152.382812 252.890625 150.445312 C 253.664062 149.605469 254.363281 148.699219 254.980469 147.734375 Z M 252.875 62.414062 C 267.59375 69.21875 278.816406 76.21875 284.605469 80.089844 C 284.164062 80.835938 283.90625 81.703125 283.886719 82.632812 L 264.355469 88.0625 C 263.523438 86.769531 262.074219 85.917969 260.417969 85.917969 C 260.117188 85.917969 259.820312 85.945312 259.539062 86.003906 L 250.484375 64.753906 C 251.441406 64.160156 252.257812 63.359375 252.875 62.414062 Z M 246.832031 65.875 C 247.367188 65.851562 247.890625 65.769531 248.394531 65.640625 L 257.472656 86.960938 C 256.410156 87.820312 255.734375 89.128906 255.734375 90.601562 C 255.734375 91.945312 256.304688 93.15625 257.210938 94.011719 L 245.664062 118.359375 C 244.300781 117.804688 242.863281 117.398438 241.367188 117.152344 Z M 240.871094 63.390625 C 241.84375 64.464844 243.121094 65.253906 244.566406 65.632812 L 239.109375 116.910156 C 238.777344 116.894531 238.453125 116.886719 238.121094 116.886719 C 232.9375 116.886719 228.214844 118.851562 224.65625 122.082031 L 199.503906 97.347656 C 200.753906 95.992188 201.519531 94.1875 201.519531 92.199219 C 201.519531 91.367188 201.382812 90.566406 201.140625 89.820312 Z M 148.609375 243.78125 C 149.109375 243.960938 149.644531 244.066406 150.203125 244.066406 C 151.320312 244.066406 152.339844 243.675781 153.144531 243.027344 L 176.273438 260.507812 C 176.097656 260.921875 175.980469 261.367188 175.929688 261.832031 L 149.898438 265.382812 C 149.277344 263.722656 147.734375 262.507812 145.886719 262.363281 C 145.714844 256.46875 146.566406 250.222656 148.609375 243.78125 Z M 154.859375 238.839844 L 208.3125 226.597656 C 208.609375 227.355469 209.019531 228.054688 209.53125 228.667969 L 182.796875 258.207031 C 182.140625 257.855469 181.386719 257.65625 180.589844 257.65625 C 179.472656 257.65625 178.449219 258.046875 177.648438 258.695312 L 154.519531 241.214844 C 154.761719 240.652344 154.894531 240.027344 154.894531 239.378906 C 154.894531 239.195312 154.882812 239.015625 154.859375 238.839844 Z M 188.855469 307.378906 C 167.773438 305.234375 151.394531 291.054688 147.015625 271.46875 C 148.683594 270.90625 149.925781 269.433594 150.160156 267.648438 L 176.238281 264.085938 C 176.929688 265.8125 178.613281 267.03125 180.589844 267.03125 C 180.609375 267.03125 180.632812 267.027344 180.652344 267.027344 L 190.402344 303.808594 C 189.453125 304.667969 188.851562 305.902344 188.851562 307.28125 C 188.851562 307.316406 188.855469 307.347656 188.855469 307.378906 Z M 182.851562 266.449219 C 184.296875 265.648438 185.273438 264.113281 185.273438 262.34375 C 185.273438 261.375 184.984375 260.480469 184.484375 259.734375 L 211.230469 230.179688 C 211.59375 230.417969 211.976562 230.625 212.378906 230.796875 L 193.589844 302.597656 L 193.542969 302.597656 C 193.167969 302.597656 192.8125 302.644531 192.464844 302.726562 Z M 198.214844 307.535156 C 198.21875 307.453125 198.226562 307.367188 198.226562 307.28125 C 198.226562 306.449219 198.007812 305.667969 197.625 304.988281 L 221.28125 273.226562 C 221.808594 273.433594 222.386719 273.550781 222.988281 273.550781 C 224.707031 273.550781 226.207031 272.621094 227.023438 271.242188 L 249.429688 277.003906 C 249.515625 278.695312 250.136719 280.242188 251.148438 281.46875 C 240.425781 292.328125 226.15625 302.042969 207.640625 306.175781 C 204.441406 306.890625 201.292969 307.339844 198.214844 307.535156 Z M 218.300781 268.863281 C 218.300781 270.027344 218.726562 271.085938 219.425781 271.90625 L 196.03125 303.320312 C 195.949219 303.265625 195.875 303.214844 195.792969 303.171875 L 214.582031 231.375 C 214.84375 231.398438 215.109375 231.417969 215.382812 231.417969 L 215.410156 231.417969 L 221.074219 264.585938 C 219.4375 265.320312 218.300781 266.957031 218.300781 268.863281 Z M 215.382812 216.203125 C 214.453125 216.203125 213.566406 216.382812 212.746094 216.6875 L 195.914062 186.199219 C 196.789062 185.34375 197.335938 184.152344 197.335938 182.835938 C 197.335938 181.945312 197.082031 181.117188 196.652344 180.410156 L 224.855469 151.929688 C 226.894531 153.734375 229.304688 155.128906 231.953125 155.984375 L 216.1875 216.246094 C 215.921875 216.222656 215.65625 216.203125 215.382812 216.203125 Z M 169.835938 124.675781 L 181.300781 110.230469 L 190.300781 98.890625 C 191.371094 99.476562 192.605469 99.804688 193.917969 99.804688 C 195.300781 99.804688 196.601562 99.425781 197.714844 98.777344 L 223.0625 123.710938 C 222.65625 124.171875 222.269531 124.65625 221.914062 125.15625 C 220.039062 127.726562 218.769531 130.757812 218.292969 134.046875 L 171.390625 129.949219 C 171.40625 129.738281 171.425781 129.527344 171.425781 129.316406 C 171.425781 127.566406 170.828125 125.960938 169.835938 124.675781 Z M 170.855469 132.1875 L 218.097656 136.316406 C 218.09375 136.515625 218.085938 136.71875 218.085938 136.921875 C 218.085938 139.007812 218.402344 141.019531 218.996094 142.910156 L 203.949219 148.582031 C 203.148438 147.136719 201.617188 146.164062 199.851562 146.164062 C 198.550781 146.164062 197.371094 146.695312 196.523438 147.550781 L 170.824219 132.285156 C 170.835938 132.253906 170.84375 132.21875 170.855469 132.1875 Z M 200.472656 155.492188 C 202.765625 155.1875 204.535156 153.226562 204.535156 150.851562 L 204.535156 150.789062 L 219.804688 145.039062 C 220.667969 146.984375 221.832031 148.769531 223.234375 150.332031 L 195.035156 178.8125 C 194.980469 178.777344 194.925781 178.738281 194.863281 178.707031 Z M 200.101562 87.78125 C 199.023438 86.273438 197.410156 85.179688 195.539062 84.769531 L 196.542969 66.804688 C 198.460938 66.441406 199.953125 64.914062 200.28125 62.988281 L 239.089844 59.996094 C 239.210938 60.523438 239.386719 61.023438 239.605469 61.5 Z M 154.734375 46.679688 C 155.117188 46.597656 155.503906 46.515625 155.890625 46.433594 C 163.21875 44.917969 170.949219 44.058594 179.003906 44.144531 C 200.765625 44.359375 221.554688 49.8125 239.089844 56.574219 C 239 56.949219 238.945312 57.335938 238.914062 57.730469 L 200.109375 60.71875 C 199.484375 58.859375 197.734375 57.515625 195.664062 57.515625 C 193.957031 57.515625 192.46875 58.429688 191.648438 59.796875 L 155.320312 48.765625 L 154.6875 48.574219 C 154.738281 48.214844 154.777344 47.851562 154.777344 47.480469 C 154.777344 47.207031 154.761719 46.941406 154.734375 46.679688 Z M 154.03125 50.746094 L 154.839844 50.992188 L 190.988281 61.96875 C 190.980469 62.046875 190.976562 62.125 190.976562 62.203125 C 190.976562 64.308594 192.363281 66.089844 194.277344 66.679688 L 193.269531 84.628906 C 191.492188 84.777344 189.890625 85.539062 188.675781 86.699219 L 154.445312 53.035156 L 153.328125 51.9375 C 153.597656 51.5625 153.828125 51.167969 154.03125 50.746094 Z M 140.324219 50.777344 C 141.039062 52.253906 142.210938 53.464844 143.664062 54.222656 L 134.105469 82.1875 C 133.980469 82.175781 133.851562 82.167969 133.714844 82.167969 C 131.929688 82.167969 130.375 83.167969 129.585938 84.640625 L 96.957031 80.671875 C 96.910156 79.066406 96.371094 77.59375 95.476562 76.386719 C 105.0625 68.542969 120.683594 57.679688 140.324219 50.777344 Z M 157.609375 124.933594 L 96.25 84.113281 C 96.425781 83.734375 96.570312 83.339844 96.6875 82.933594 L 129.027344 86.863281 C 129.03125 89.445312 131.132812 91.542969 133.714844 91.542969 C 134.292969 91.542969 134.84375 91.433594 135.351562 91.242188 L 158.199219 124.203125 C 157.992188 124.4375 157.789062 124.675781 157.609375 124.933594 Z M 159.96875 122.765625 L 137.226562 89.953125 C 137.957031 89.128906 138.402344 88.046875 138.402344 86.855469 C 138.402344 85.203125 137.550781 83.757812 136.261719 82.921875 L 145.816406 54.957031 C 146.257812 55.035156 146.707031 55.085938 147.171875 55.085938 C 147.292969 55.085938 147.414062 55.070312 147.53125 55.0625 L 161.019531 122.25 C 160.652344 122.394531 160.304688 122.566406 159.96875 122.765625 Z M 163.234375 121.738281 L 149.765625 54.621094 C 150.472656 54.363281 151.136719 54.003906 151.730469 53.554688 L 154.011719 55.800781 L 187.273438 88.507812 C 186.660156 89.601562 186.3125 90.859375 186.3125 92.199219 C 186.3125 94.269531 187.144531 96.140625 188.484375 97.515625 L 179.3125 109.070312 L 168.1875 123.097656 C 166.949219 122.222656 165.445312 121.707031 163.816406 121.707031 C 163.621094 121.707031 163.425781 121.726562 163.234375 121.738281 Z M 168.003906 135.664062 C 168.609375 135.257812 169.15625 134.773438 169.625 134.21875 L 195.359375 149.507812 C 195.234375 149.933594 195.160156 150.382812 195.160156 150.851562 C 195.160156 152.859375 196.421875 154.5625 198.199219 155.234375 L 192.660156 178.148438 L 192.644531 178.148438 C 192.265625 178.148438 191.898438 178.203125 191.539062 178.285156 Z M 176.617188 203.707031 C 182.457031 198.507812 187.035156 192.867188 190.46875 186.988281 C 191.121094 187.328125 191.859375 187.523438 192.644531 187.523438 C 193.09375 187.523438 193.527344 187.457031 193.945312 187.339844 L 210.753906 217.785156 C 208.945312 219.175781 207.777344 221.355469 207.777344 223.8125 C 207.777344 224.003906 207.792969 224.191406 207.804688 224.382812 L 154.042969 236.691406 C 153.546875 235.980469 152.863281 235.417969 152.058594 235.070312 C 156.960938 224.765625 164.933594 214.121094 176.617188 203.707031 Z M 251.472656 271.4375 C 250.617188 272.351562 249.988281 273.46875 249.664062 274.714844 L 227.667969 269.054688 C 227.667969 268.992188 227.675781 268.929688 227.675781 268.863281 C 227.675781 266.382812 225.753906 264.363281 223.316406 264.195312 L 217.65625 231.070312 C 218.179688 230.90625 218.675781 230.683594 219.144531 230.417969 Z M 219.304688 217.304688 C 219.007812 217.128906 218.703125 216.960938 218.386719 216.824219 L 234.15625 156.558594 C 235.4375 156.816406 236.765625 156.957031 238.121094 156.957031 C 240.332031 156.957031 242.460938 156.589844 244.453125 155.929688 L 251.367188 173.316406 C 250.183594 174.167969 249.410156 175.550781 249.410156 177.117188 C 249.410156 178.160156 249.753906 179.117188 250.328125 179.890625 Z M 253.136719 243.378906 L 222.507812 226.453125 C 222.816406 225.628906 222.988281 224.742188 222.988281 223.8125 C 222.988281 221.871094 222.25 220.101562 221.054688 218.757812 L 252.074219 181.34375 C 252.421875 181.507812 252.792969 181.640625 253.183594 181.71875 L 257.476562 240.59375 C 255.71875 240.988281 254.199219 241.996094 253.136719 243.378906 Z M 276.03125 209.839844 C 270.398438 220.554688 264.832031 231.65625 260.941406 240.621094 C 260.554688 240.527344 260.15625 240.460938 259.75 240.429688 L 255.453125 181.605469 C 255.8125 181.5 256.144531 181.347656 256.464844 181.164062 L 273.800781 198.894531 L 276.460938 201.613281 C 276.023438 202.328125 275.765625 203.167969 275.765625 204.066406 C 275.765625 205.425781 276.34375 206.640625 277.261719 207.5 C 276.851562 208.277344 276.4375 209.058594 276.03125 209.839844 Z M 281.53125 199.507812 C 281.183594 199.425781 280.824219 199.378906 280.449219 199.378906 C 279.585938 199.378906 278.777344 199.613281 278.085938 200.023438 L 272.742188 194.554688 L 258.085938 179.570312 C 258.445312 178.996094 258.679688 178.339844 258.757812 177.632812 L 266.980469 176.519531 L 291.359375 173.203125 C 291.804688 174.734375 292.722656 176.066406 293.949219 177.03125 C 290.945312 182.355469 286.425781 190.441406 281.53125 199.507812 Z M 292.667969 166.382812 L 256.101562 145.757812 C 257.414062 143.09375 258.15625 140.09375 258.15625 136.921875 C 258.15625 134.914062 257.855469 132.972656 257.304688 131.148438 L 286.484375 120.527344 C 287.71875 122.785156 290.066406 124.335938 292.789062 124.46875 L 296.761719 163.707031 C 295.117188 164.128906 293.6875 165.082031 292.667969 166.382812 Z M 292.667969 166.382812 " fill-opacity="1" fill-rule="nonzero"/><path fill="#fff743" d="M 173.972656 85.359375 C 173.972656 85.679688 173.910156 85.988281 173.785156 86.285156 C 173.664062 86.582031 173.488281 86.84375 173.261719 87.070312 C 173.035156 87.296875 172.773438 87.472656 172.476562 87.597656 C 172.179688 87.71875 171.871094 87.78125 171.546875 87.78125 C 171.226562 87.78125 170.917969 87.71875 170.621094 87.597656 C 170.324219 87.472656 170.0625 87.296875 169.835938 87.070312 C 169.609375 86.84375 169.433594 86.582031 169.3125 86.285156 C 169.1875 85.988281 169.125 85.679688 169.125 85.359375 C 169.125 85.035156 169.1875 84.726562 169.3125 84.429688 C 169.433594 84.132812 169.609375 83.871094 169.835938 83.644531 C 170.0625 83.417969 170.324219 83.242188 170.621094 83.121094 C 170.917969 82.996094 171.226562 82.9375 171.546875 82.9375 C 171.871094 82.9375 172.179688 82.996094 172.476562 83.121094 C 172.773438 83.242188 173.035156 83.417969 173.261719 83.644531 C 173.488281 83.871094 173.664062 84.132812 173.785156 84.429688 C 173.910156 84.726562 173.972656 85.035156 173.972656 85.359375 Z M 173.972656 85.359375 " fill-opacity="1" fill-rule="nonzero"/><path fill="#fff743" d="M 188.488281 51.296875 C 188.488281 51.652344 188.417969 51.996094 188.28125 52.328125 C 188.144531 52.65625 187.949219 52.949219 187.699219 53.199219 C 187.445312 53.453125 187.15625 53.648438 186.824219 53.785156 C 186.496094 53.921875 186.152344 53.988281 185.792969 53.988281 C 185.4375 53.988281 185.09375 53.921875 184.761719 53.785156 C 184.433594 53.648438 184.144531 53.453125 183.890625 53.199219 C 183.636719 52.949219 183.441406 52.65625 183.304688 52.328125 C 183.167969 51.996094 183.101562 51.652344 183.101562 51.296875 C 183.101562 50.941406 183.167969 50.597656 183.304688 50.265625 C 183.441406 49.9375 183.636719 49.644531 183.890625 49.394531 C 184.144531 49.140625 184.433594 48.945312 184.761719 48.808594 C 185.09375 48.671875 185.4375 48.605469 185.792969 48.605469 C 186.152344 48.605469 186.496094 48.671875 186.824219 48.808594 C 187.15625 48.945312 187.445312 49.140625 187.699219 49.394531 C 187.949219 49.644531 188.144531 49.9375 188.28125 50.265625 C 188.417969 50.597656 188.488281 50.941406 188.488281 51.296875 Z M 188.488281 51.296875 " fill-opacity="1" fill-rule="nonzero"/><path fill="#fff743" d="M 239.089844 29.457031 C 239.089844 29.941406 239.042969 30.417969 238.949219 30.894531 C 238.855469 31.367188 238.714844 31.824219 238.53125 32.273438 C 238.347656 32.71875 238.121094 33.140625 237.851562 33.542969 C 237.585938 33.945312 237.28125 34.316406 236.9375 34.65625 C 236.597656 35 236.226562 35.304688 235.824219 35.570312 C 235.421875 35.839844 235 36.066406 234.550781 36.25 C 234.105469 36.4375 233.648438 36.574219 233.171875 36.667969 C 232.699219 36.765625 232.222656 36.8125 231.738281 36.8125 C 231.257812 36.8125 230.777344 36.765625 230.304688 36.667969 C 229.832031 36.574219 229.371094 36.4375 228.925781 36.25 C 228.480469 36.066406 228.054688 35.839844 227.652344 35.570312 C 227.253906 35.304688 226.882812 35 226.539062 34.65625 C 226.199219 34.316406 225.894531 33.945312 225.625 33.542969 C 225.355469 33.140625 225.128906 32.71875 224.945312 32.273438 C 224.761719 31.824219 224.621094 31.367188 224.527344 30.894531 C 224.433594 30.417969 224.386719 29.941406 224.386719 29.457031 C 224.386719 28.976562 224.433594 28.496094 224.527344 28.023438 C 224.621094 27.550781 224.761719 27.089844 224.945312 26.644531 C 225.128906 26.199219 225.355469 25.773438 225.625 25.375 C 225.894531 24.972656 226.199219 24.601562 226.539062 24.257812 C 226.882812 23.917969 227.253906 23.613281 227.652344 23.34375 C 228.054688 23.078125 228.480469 22.851562 228.925781 22.664062 C 229.371094 22.480469 229.832031 22.339844 230.304688 22.246094 C 230.777344 22.152344 231.257812 22.105469 231.738281 22.105469 C 232.222656 22.105469 232.699219 22.152344 233.171875 22.246094 C 233.648438 22.339844 234.105469 22.480469 234.550781 22.664062 C 235 22.851562 235.421875 23.078125 235.824219 23.34375 C 236.226562 23.613281 236.597656 23.917969 236.9375 24.257812 C 237.28125 24.601562 237.585938 24.972656 237.851562 25.375 C 238.121094 25.773438 238.347656 26.199219 238.53125 26.644531 C 238.714844 27.089844 238.855469 27.550781 238.949219 28.023438 C 239.042969 28.496094 239.089844 28.976562 239.089844 29.457031 Z M 239.089844 29.457031 " fill-opacity="1" fill-rule="nonzero"/><path fill="#fff743" d="M 326.671875 79.117188 C 326.671875 79.414062 326.617188 79.703125 326.503906 79.976562 C 326.386719 80.253906 326.226562 80.496094 326.015625 80.707031 C 325.804688 80.917969 325.5625 81.078125 325.285156 81.191406 C 325.011719 81.308594 324.726562 81.363281 324.425781 81.363281 C 324.128906 81.363281 323.84375 81.308594 323.566406 81.191406 C 323.292969 81.078125 323.050781 80.917969 322.839844 80.707031 C 322.628906 80.496094 322.464844 80.253906 322.351562 79.976562 C 322.238281 79.703125 322.179688 79.414062 322.179688 79.117188 C 322.179688 78.820312 322.238281 78.535156 322.351562 78.257812 C 322.464844 77.984375 322.628906 77.742188 322.839844 77.53125 C 323.050781 77.320312 323.292969 77.15625 323.566406 77.042969 C 323.84375 76.929688 324.128906 76.871094 324.425781 76.871094 C 324.726562 76.871094 325.011719 76.929688 325.285156 77.042969 C 325.5625 77.15625 325.804688 77.320312 326.015625 77.53125 C 326.226562 77.742188 326.386719 77.984375 326.503906 78.257812 C 326.617188 78.535156 326.671875 78.820312 326.671875 79.117188 Z M 326.671875 79.117188 " fill-opacity="1" fill-rule="nonzero"/><path fill="#fff743" d="M 315.339844 114.367188 C 315.339844 114.585938 315.296875 114.796875 315.214844 114.996094 C 315.132812 115.199219 315.011719 115.375 314.859375 115.527344 C 314.707031 115.683594 314.527344 115.800781 314.328125 115.882812 C 314.125 115.96875 313.917969 116.007812 313.699219 116.007812 C 313.480469 116.007812 313.273438 115.96875 313.070312 115.882812 C 312.871094 115.800781 312.691406 115.683594 312.539062 115.527344 C 312.386719 115.375 312.265625 115.199219 312.183594 114.996094 C 312.101562 114.796875 312.058594 114.585938 312.058594 114.367188 C 312.058594 114.152344 312.101562 113.941406 312.183594 113.742188 C 312.265625 113.539062 312.386719 113.363281 312.539062 113.207031 C 312.691406 113.054688 312.871094 112.9375 313.070312 112.851562 C 313.273438 112.769531 313.480469 112.726562 313.699219 112.726562 C 313.917969 112.726562 314.125 112.769531 314.328125 112.851562 C 314.527344 112.9375 314.707031 113.054688 314.859375 113.207031 C 315.011719 113.363281 315.132812 113.539062 315.214844 113.742188 C 315.296875 113.941406 315.339844 114.152344 315.339844 114.367188 Z M 315.339844 114.367188 " fill-opacity="1" fill-rule="nonzero"/><path fill="#fff743" d="M 280.957031 48.609375 C 280.957031 49.003906 280.878906 49.382812 280.730469 49.75 C 280.578125 50.113281 280.363281 50.4375 280.082031 50.714844 C 279.804688 50.996094 279.480469 51.210938 279.117188 51.363281 C 278.75 51.511719 278.371094 51.589844 277.976562 51.589844 C 277.582031 51.589844 277.199219 51.511719 276.835938 51.363281 C 276.46875 51.210938 276.148438 50.996094 275.867188 50.714844 C 275.589844 50.4375 275.375 50.113281 275.222656 49.75 C 275.070312 49.382812 274.996094 49.003906 274.996094 48.609375 C 274.996094 48.214844 275.070312 47.832031 275.222656 47.46875 C 275.375 47.101562 275.589844 46.78125 275.867188 46.5 C 276.148438 46.222656 276.46875 46.007812 276.835938 45.855469 C 277.199219 45.703125 277.582031 45.628906 277.976562 45.628906 C 278.371094 45.628906 278.75 45.703125 279.117188 45.855469 C 279.480469 46.007812 279.804688 46.222656 280.082031 46.5 C 280.363281 46.78125 280.578125 47.101562 280.730469 47.46875 C 280.878906 47.832031 280.957031 48.214844 280.957031 48.609375 Z M 280.957031 48.609375 " fill-opacity="1" fill-rule="nonzero"/><path fill="#fff743" d="M 320.1875 147.738281 C 320.1875 148.015625 320.160156 148.292969 320.105469 148.566406 C 320.050781 148.839844 319.972656 149.105469 319.867188 149.363281 C 319.757812 149.621094 319.628906 149.863281 319.472656 150.097656 C 319.320312 150.328125 319.140625 150.542969 318.945312 150.738281 C 318.75 150.9375 318.535156 151.113281 318.300781 151.265625 C 318.070312 151.421875 317.828125 151.550781 317.570312 151.660156 C 317.3125 151.765625 317.046875 151.847656 316.773438 151.902344 C 316.5 151.953125 316.222656 151.980469 315.945312 151.980469 C 315.667969 151.980469 315.390625 151.953125 315.117188 151.902344 C 314.84375 151.847656 314.578125 151.765625 314.320312 151.660156 C 314.0625 151.550781 313.820312 151.421875 313.585938 151.265625 C 313.355469 151.113281 313.140625 150.9375 312.945312 150.738281 C 312.746094 150.542969 312.570312 150.328125 312.417969 150.097656 C 312.261719 149.863281 312.132812 149.621094 312.023438 149.363281 C 311.917969 149.105469 311.835938 148.839844 311.785156 148.566406 C 311.730469 148.292969 311.703125 148.015625 311.703125 147.738281 C 311.703125 147.460938 311.730469 147.183594 311.785156 146.910156 C 311.835938 146.636719 311.917969 146.371094 312.023438 146.113281 C 312.132812 145.859375 312.261719 145.613281 312.417969 145.382812 C 312.570312 145.148438 312.746094 144.933594 312.945312 144.738281 C 313.140625 144.542969 313.355469 144.367188 313.585938 144.210938 C 313.820312 144.054688 314.0625 143.925781 314.320312 143.820312 C 314.578125 143.710938 314.84375 143.632812 315.117188 143.578125 C 315.390625 143.523438 315.667969 143.496094 315.945312 143.496094 C 316.222656 143.496094 316.5 143.523438 316.773438 143.578125 C 317.046875 143.632812 317.3125 143.710938 317.570312 143.820312 C 317.828125 143.925781 318.070312 144.054688 318.300781 144.210938 C 318.535156 144.367188 318.75 144.542969 318.945312 144.738281 C 319.140625 144.933594 319.320312 145.148438 319.472656 145.382812 C 319.628906 145.613281 319.757812 145.859375 319.867188 146.113281 C 319.972656 146.371094 320.050781 146.636719 320.105469 146.910156 C 320.160156 147.183594 320.1875 147.460938 320.1875 147.738281 Z M 320.1875 147.738281 " fill-opacity="1" fill-rule="nonzero"/><path fill="#fff743" d="M 293.949219 240.9375 C 293.949219 241.425781 293.855469 241.894531 293.667969 242.34375 C 293.480469 242.796875 293.214844 243.191406 292.871094 243.539062 C 292.527344 243.882812 292.128906 244.148438 291.679688 244.335938 C 291.226562 244.519531 290.757812 244.613281 290.269531 244.613281 C 289.785156 244.613281 289.316406 244.519531 288.863281 244.335938 C 288.414062 244.148438 288.015625 243.882812 287.671875 243.539062 C 287.328125 243.191406 287.0625 242.796875 286.875 242.34375 C 286.6875 241.894531 286.59375 241.425781 286.59375 240.9375 C 286.59375 240.449219 286.6875 239.980469 286.875 239.53125 C 287.0625 239.082031 287.328125 238.683594 287.671875 238.339844 C 288.015625 237.992188 288.414062 237.726562 288.863281 237.542969 C 289.316406 237.355469 289.785156 237.261719 290.269531 237.261719 C 290.757812 237.261719 291.226562 237.355469 291.679688 237.542969 C 292.128906 237.726562 292.527344 237.992188 292.871094 238.339844 C 293.214844 238.683594 293.480469 239.082031 293.667969 239.53125 C 293.855469 239.980469 293.949219 240.449219 293.949219 240.9375 Z M 293.949219 240.9375 " fill-opacity="1" fill-rule="nonzero"/><path fill="#fff743" d="M 239.609375 174.738281 C 239.609375 175.054688 239.550781 175.355469 239.429688 175.644531 C 239.3125 175.933594 239.140625 176.191406 238.917969 176.414062 C 238.695312 176.636719 238.441406 176.804688 238.148438 176.925781 C 237.859375 177.046875 237.558594 177.105469 237.246094 177.105469 C 236.929688 177.105469 236.628906 177.046875 236.339844 176.925781 C 236.050781 176.804688 235.792969 176.636719 235.570312 176.414062 C 235.347656 176.191406 235.179688 175.933594 235.058594 175.644531 C 234.9375 175.355469 234.878906 175.054688 234.878906 174.738281 C 234.878906 174.425781 234.9375 174.125 235.058594 173.835938 C 235.179688 173.542969 235.347656 173.289062 235.570312 173.066406 C 235.792969 172.84375 236.050781 172.671875 236.339844 172.554688 C 236.628906 172.433594 236.929688 172.375 237.246094 172.375 C 237.558594 172.375 237.859375 172.433594 238.148438 172.554688 C 238.441406 172.671875 238.695312 172.84375 238.917969 173.066406 C 239.140625 173.289062 239.3125 173.542969 239.429688 173.835938 C 239.550781 174.125 239.609375 174.425781 239.609375 174.738281 Z M 239.609375 174.738281 " fill-opacity="1" fill-rule="nonzero"/><path fill="#fff743" d="M 247.71875 212.46875 C 247.71875 212.675781 247.679688 212.878906 247.597656 213.070312 C 247.519531 213.265625 247.40625 213.433594 247.257812 213.582031 C 247.109375 213.730469 246.941406 213.84375 246.746094 213.925781 C 246.554688 214.003906 246.351562 214.042969 246.144531 214.042969 C 245.933594 214.042969 245.734375 214.003906 245.539062 213.925781 C 245.347656 213.84375 245.175781 213.730469 245.027344 213.582031 C 244.882812 213.433594 244.765625 213.265625 244.6875 213.070312 C 244.605469 212.878906 244.566406 212.675781 244.566406 212.46875 C 244.566406 212.257812 244.605469 212.058594 244.6875 211.867188 C 244.765625 211.671875 244.882812 211.5 245.027344 211.355469 C 245.175781 211.207031 245.347656 211.09375 245.539062 211.011719 C 245.734375 210.933594 245.933594 210.890625 246.144531 210.890625 C 246.351562 210.890625 246.554688 210.933594 246.746094 211.011719 C 246.941406 211.09375 247.109375 211.207031 247.257812 211.355469 C 247.40625 211.5 247.519531 211.671875 247.597656 211.867188 C 247.679688 212.058594 247.71875 212.257812 247.71875 212.46875 Z M 247.71875 212.46875 " fill-opacity="1" fill-rule="nonzero"/><path fill="#fff743" d="M 188.488281 213.585938 C 188.488281 213.941406 188.417969 214.285156 188.28125 214.617188 C 188.144531 214.945312 187.949219 215.238281 187.699219 215.488281 C 187.445312 215.742188 187.15625 215.9375 186.824219 216.074219 C 186.496094 216.210938 186.152344 216.277344 185.792969 216.277344 C 185.4375 216.277344 185.09375 216.210938 184.761719 216.074219 C 184.433594 215.9375 184.144531 215.742188 183.890625 215.488281 C 183.636719 215.238281 183.441406 214.945312 183.304688 214.617188 C 183.167969 214.285156 183.101562 213.941406 183.101562 213.585938 C 183.101562 213.226562 183.167969 212.882812 183.304688 212.554688 C 183.441406 212.226562 183.636719 211.933594 183.890625 211.679688 C 184.144531 211.429688 184.433594 211.234375 184.761719 211.097656 C 185.09375 210.960938 185.4375 210.890625 185.792969 210.890625 C 186.152344 210.890625 186.496094 210.960938 186.824219 211.097656 C 187.15625 211.234375 187.445312 211.429688 187.699219 211.679688 C 187.949219 211.933594 188.144531 212.226562 188.28125 212.554688 C 188.417969 212.882812 188.488281 213.226562 188.488281 213.585938 Z M 188.488281 213.585938 " fill-opacity="1" fill-rule="nonzero"/><path fill="#fff743" d="M 231.953125 92.644531 C 231.953125 93.148438 231.859375 93.628906 231.664062 94.09375 C 231.472656 94.558594 231.199219 94.96875 230.84375 95.320312 C 230.492188 95.675781 230.082031 95.949219 229.617188 96.140625 C 229.15625 96.335938 228.671875 96.429688 228.171875 96.429688 C 227.667969 96.429688 227.1875 96.335938 226.722656 96.140625 C 226.257812 95.949219 225.847656 95.675781 225.496094 95.320312 C 225.140625 94.96875 224.867188 94.558594 224.675781 94.09375 C 224.480469 93.628906 224.386719 93.148438 224.386719 92.644531 C 224.386719 92.144531 224.480469 91.660156 224.675781 91.199219 C 224.867188 90.734375 225.140625 90.324219 225.496094 89.972656 C 225.847656 89.617188 226.257812 89.34375 226.722656 89.152344 C 227.1875 88.957031 227.667969 88.863281 228.171875 88.863281 C 228.671875 88.863281 229.15625 88.957031 229.617188 89.152344 C 230.082031 89.34375 230.492188 89.617188 230.84375 89.972656 C 231.199219 90.324219 231.472656 90.734375 231.664062 91.199219 C 231.859375 91.660156 231.953125 92.144531 231.953125 92.644531 Z M 231.953125 92.644531 " fill-opacity="1" fill-rule="nonzero"/><path fill="#fff743" d="M 320.550781 39.875 C 320.550781 40.214844 320.515625 40.554688 320.449219 40.890625 C 320.382812 41.226562 320.285156 41.550781 320.152344 41.867188 C 320.023438 42.183594 319.859375 42.484375 319.671875 42.765625 C 319.480469 43.050781 319.265625 43.316406 319.023438 43.558594 C 318.78125 43.796875 318.519531 44.015625 318.234375 44.203125 C 317.949219 44.394531 317.648438 44.554688 317.332031 44.6875 C 317.015625 44.816406 316.691406 44.914062 316.355469 44.980469 C 316.019531 45.050781 315.683594 45.082031 315.339844 45.082031 C 314.996094 45.082031 314.660156 45.050781 314.324219 44.980469 C 313.988281 44.914062 313.660156 44.816406 313.347656 44.6875 C 313.03125 44.554688 312.730469 44.394531 312.445312 44.203125 C 312.160156 44.015625 311.898438 43.796875 311.65625 43.558594 C 311.414062 43.316406 311.199219 43.050781 311.007812 42.765625 C 310.816406 42.484375 310.65625 42.183594 310.527344 41.867188 C 310.394531 41.550781 310.296875 41.226562 310.230469 40.890625 C 310.164062 40.554688 310.128906 40.214844 310.128906 39.875 C 310.128906 39.53125 310.164062 39.191406 310.230469 38.855469 C 310.296875 38.519531 310.394531 38.195312 310.527344 37.878906 C 310.65625 37.5625 310.816406 37.261719 311.007812 36.980469 C 311.199219 36.695312 311.414062 36.429688 311.65625 36.1875 C 311.898438 35.949219 312.160156 35.730469 312.445312 35.542969 C 312.730469 35.351562 313.03125 35.191406 313.347656 35.058594 C 313.660156 34.929688 313.988281 34.832031 314.324219 34.761719 C 314.660156 34.695312 314.996094 34.664062 315.339844 34.664062 C 315.683594 34.664062 316.019531 34.695312 316.355469 34.765625 C 316.691406 34.832031 317.015625 34.929688 317.332031 35.058594 C 317.648438 35.191406 317.949219 35.351562 318.234375 35.542969 C 318.519531 35.730469 318.78125 35.949219 319.023438 36.1875 C 319.265625 36.429688 319.480469 36.695312 319.671875 36.980469 C 319.859375 37.261719 320.023438 37.5625 320.152344 37.878906 C 320.285156 38.195312 320.382812 38.519531 320.449219 38.855469 C 320.515625 39.191406 320.550781 39.53125 320.550781 39.875 Z M 320.550781 39.875 " fill-opacity="1" fill-rule="nonzero"/><g mask="url(#256047857c)"><g transform="matrix(1, 0, 0, 1, 46, 121)"><g clip-path="url(#079ee206d8)"><g clip-path="url(#98580e81e5)"><path fill="#fff743" d="M 76.128906 234.054688 C 78.316406 231.125 111.613281 185.707031 80.6875 181.992188 C 79.933594 181.902344 79.140625 181.835938 78.3125 181.800781 C 42.222656 180.082031 27.792969 180.160156 33.429688 159.691406 C 36.957031 146.894531 32.480469 141.195312 28.632812 138.722656 C 26.761719 137.523438 26.617188 134.828125 28.285156 133.355469 L 34.6875 127.730469 L 26.320312 125.578125 C 22.945312 124.714844 21.117188 121.035156 22.503906 117.839844 C 24.207031 113.917969 25.210938 109.183594 21.316406 107.464844 C 17.472656 105.765625 10.621094 103.519531 5.152344 101.816406 C 1.28125 100.609375 -0.113281 95.863281 2.476562 92.753906 C 11.441406 82.015625 28.304688 60.730469 31.339844 49.183594 C 34.371094 37.671875 27.632812 17.171875 24.332031 1.425781 C 24.328125 1.417969 24.328125 1.410156 24.328125 1.40625 C 24.328125 1.398438 24.328125 1.398438 24.328125 1.398438 C 24.328125 1.398438 24.332031 1.398438 24.335938 1.40625 L 74.972656 14.492188 L 93.21875 19.203125 C 97.519531 20.308594 101.3125 22.859375 103.96875 26.425781 L 104.320312 26.886719 L 126.300781 55.46875 C 128.128906 57.851562 128.515625 61.039062 127.304688 63.792969 L 119.386719 81.777344 C 119.386719 81.777344 48.035156 151.933594 99.867188 179.222656 C 151.699219 206.515625 171.304688 180.035156 222.34375 187.816406 C 176.304688 188.25 128.066406 200.773438 76.019531 234.203125 C 76.023438 234.199219 76.027344 234.191406 76.03125 234.1875 Z M 76.128906 234.054688 " fill-opacity="1" fill-rule="nonzero"/></g></g></g></g><g mask="url(#0b955357d9)"><g transform="matrix(1, 0, 0, 1, 46, 121)"><g clip-path="url(#b905385448)"><path fill="#000000" d="M 95.765625 105.597656 C 73.800781 147.675781 75.738281 170.519531 80.6875 181.992188 C 79.933594 181.902344 79.140625 181.835938 78.3125 181.800781 C 42.222656 180.082031 27.792969 180.160156 33.429688 159.691406 C 36.957031 146.894531 32.480469 141.195312 28.632812 138.722656 C 26.761719 137.523438 26.617188 134.828125 28.285156 133.355469 L 34.6875 127.730469 L 26.320312 125.578125 C 22.945312 124.714844 21.117188 121.035156 22.503906 117.839844 C 24.207031 113.917969 25.210938 109.183594 21.316406 107.464844 C 17.472656 105.765625 10.621094 103.519531 5.152344 101.816406 C 1.28125 100.609375 -0.113281 95.863281 2.476562 92.753906 C 11.441406 82.015625 28.304688 60.730469 31.339844 49.183594 C 34.371094 37.671875 27.632812 17.171875 24.332031 1.425781 C 24.328125 1.417969 24.328125 1.410156 24.328125 1.40625 C 24.328125 1.398438 24.328125 1.398438 24.328125 1.398438 C 24.328125 1.398438 24.332031 1.398438 24.335938 1.40625 L 74.972656 14.492188 L 93.21875 19.203125 C 97.519531 20.308594 101.3125 22.859375 103.96875 26.425781 L 104.320312 26.886719 C 112.042969 40.492188 116.851562 65.195312 95.765625 105.597656 Z M 95.765625 105.597656 " fill-opacity="1" fill-rule="nonzero"/></g></g></g><g mask="url(#65fb7ac0a9)"><g transform="matrix(1, 0, 0, 1, 46, 121)"><g clip-path="url(#afeb5302ce)"><g clip-path="url(#3d3a48d9a8)"><path fill="#fff743" d="M 76.128906 234.054688 C 78.367188 231.050781 113.253906 183.46875 78.3125 181.800781 C 42.222656 180.082031 27.792969 180.160156 33.429688 159.691406 C 36.957031 146.894531 32.480469 141.195312 28.632812 138.722656 C 26.761719 137.523438 26.617188 134.828125 28.285156 133.355469 L 34.6875 127.730469 L 26.320312 125.578125 C 22.945312 124.714844 21.117188 121.035156 22.503906 117.839844 C 24.207031 113.917969 25.210938 109.183594 21.316406 107.464844 C 17.472656 105.765625 10.621094 103.519531 5.152344 101.816406 C 1.28125 100.609375 -0.113281 95.863281 2.476562 92.753906 C 11.441406 82.015625 28.304688 60.730469 31.339844 49.183594 C 34.371094 37.671875 27.632812 17.171875 24.332031 1.425781 C 24.328125 1.417969 24.328125 1.410156 24.328125 1.40625 C 24.328125 1.398438 24.328125 1.398438 24.328125 1.398438 C 24.328125 1.398438 24.332031 1.398438 24.335938 1.40625 L 74.972656 14.492188 L 81.5625 24.582031 C 93.625 43.058594 95.078125 66.523438 85.378906 86.34375 L 74.351562 108.890625 C 61.476562 135.214844 74.253906 166.886719 101.785156 176.910156 C 113.65625 181.230469 116.738281 196.589844 107.453125 205.15625 Z M 76.128906 234.054688 " fill-opacity="1" fill-rule="nonzero"/></g></g></g></g><g mask="url(#816afb2fb9)"><g transform="matrix(1, 0, 0, 1, 86, 91)"><g clip-path="url(#c56dc96c13)"><g clip-path="url(#cd9904badb)"><path fill="#000000" d="M 92.148438 93.859375 C 94.113281 91.101562 94.183594 87.421875 92.328125 84.585938 L 68.625 48.378906 C 66.933594 45.800781 64.664062 43.660156 61.992188 42.132812 L 0.535156 7.007812 C 6.558594 4.433594 12.46875 2.5 18.230469 1.152344 L 71.011719 39.476562 C 72.558594 40.597656 73.820312 42.066406 74.699219 43.765625 L 94.902344 82.761719 C 97.265625 87.316406 96.542969 92.863281 93.09375 96.664062 L 79.386719 111.769531 Z M 92.148438 93.859375 " fill-opacity="1" fill-rule="nonzero"/></g></g></g></g><path fill="#fff743" d="M 178.148438 184.859375 C 180.113281 182.101562 180.183594 178.421875 178.328125 175.585938 L 154.625 139.378906 C 152.933594 136.800781 150.664062 134.660156 147.992188 133.132812 L 86.535156 98.007812 C 92.558594 95.433594 98.46875 93.5 104.230469 92.152344 L 157.011719 130.476562 C 158.558594 131.597656 159.820312 133.066406 160.699219 134.765625 L 180.902344 173.761719 C 183.265625 178.316406 182.542969 183.863281 179.09375 187.664062 L 165.386719 202.769531 Z M 178.148438 184.859375 " fill-opacity="1" fill-rule="nonzero"/><g mask="url(#756133b84e)"><g transform="matrix(1, 0, 0, 1, 46, 121)"><g clip-path="url(#84fb8320f9)"><g clip-path="url(#c8ea3297f9)"><path fill="#fff743" d="M 103.433594 196.054688 C 103.433594 200.082031 102.054688 204.164062 99.125 207.546875 L 76.128906 234.054688 C 78.050781 231.476562 104.011719 196.074219 89.257812 185.023438 C 88.375 184.359375 87.339844 183.785156 86.140625 183.304688 C 84.050781 182.472656 81.464844 181.949219 78.3125 181.800781 C 42.222656 180.082031 27.792969 180.160156 33.429688 159.691406 C 36.957031 146.894531 32.480469 141.195312 28.632812 138.722656 C 26.761719 137.523438 26.617188 134.828125 28.285156 133.355469 L 34.6875 127.730469 L 26.320312 125.578125 C 22.945312 124.714844 21.117188 121.035156 22.503906 117.839844 C 24.207031 113.917969 25.210938 109.183594 21.316406 107.464844 C 17.472656 105.765625 10.621094 103.519531 5.152344 101.816406 C 1.28125 100.609375 -0.113281 95.863281 2.476562 92.753906 C 9.355469 84.515625 20.882812 70.066406 27.246094 58.570312 C 29.179688 55.082031 30.636719 51.871094 31.339844 49.183594 C 34.371094 37.671875 27.632812 17.171875 24.332031 1.425781 C 24.328125 1.417969 24.328125 1.410156 24.328125 1.40625 C 24.332031 1.40625 24.335938 1.40625 24.335938 1.40625 L 48.425781 31.386719 C 63.023438 49.546875 67.898438 73.664062 61.5 96.066406 L 56.976562 111.921875 C 48.835938 140.429688 64.535156 170.300781 92.625 179.777344 C 99.554688 182.675781 103.433594 189.289062 103.433594 196.054688 Z M 103.433594 196.054688 " fill-opacity="1" fill-rule="nonzero"/></g></g></g></g><path fill="#fff743" d="M 132.140625 304.304688 C 130.050781 303.472656 127.464844 302.949219 124.3125 302.800781 C 88.222656 301.082031 73.792969 301.160156 79.429688 280.691406 C 82.957031 267.894531 78.480469 262.195312 74.632812 259.722656 C 72.761719 258.523438 72.617188 255.828125 74.285156 254.355469 L 80.6875 248.730469 L 72.320312 246.578125 C 68.945312 245.714844 67.117188 242.035156 68.503906 238.839844 C 70.207031 234.917969 71.210938 230.183594 67.316406 228.464844 C 63.472656 226.765625 56.621094 224.519531 51.152344 222.816406 C 47.28125 221.609375 45.886719 216.863281 48.476562 213.753906 C 55.355469 205.515625 66.882812 191.066406 73.246094 179.570312 C 83.164062 192.691406 88.792969 208.707031 89.121094 225.390625 L 89.464844 242.78125 C 89.933594 266.566406 103.0625 288.292969 123.894531 299.765625 Z M 132.140625 304.304688 " fill-opacity="1" fill-rule="nonzero"/><g mask="url(#94eb14d97a)"><g transform="matrix(1, 0, 0, 1, 153, 41)"><g clip-path="url(#b95e976f82)"><g clip-path="url(#2fb35a352f)"><path fill="#fff743" d="M 146.023438 122.480469 L 142.050781 83.242188 C 145.335938 82.40625 147.769531 79.433594 147.769531 75.886719 C 147.769531 71.808594 144.5625 68.496094 140.535156 68.296875 L 138.332031 46.515625 C 140.269531 45.625 141.574219 43.59375 141.371094 41.277344 C 141.164062 38.800781 139.167969 36.769531 136.699219 36.515625 C 135.390625 36.378906 134.167969 36.726562 133.183594 37.398438 C 127.808594 33.777344 117.515625 27.277344 104.039062 20.800781 C 103 20.304688 101.925781 19.800781 100.824219 19.289062 C 101.191406 17.945312 101.234375 16.46875 100.695312 14.90625 C 99.683594 11.984375 97.015625 9.867188 93.933594 9.691406 C 90.960938 9.523438 88.335938 11.070312 86.945312 13.429688 C 69.839844 6.859375 48.519531 1.09375 26.03125 0.871094 C 18.597656 0.804688 11.089844 1.53125 3.542969 3.035156 C 3.316406 3.824219 3.097656 4.628906 2.890625 5.433594 C 10.21875 3.917969 17.949219 3.058594 26.003906 3.144531 C 47.765625 3.359375 68.554688 8.8125 86.089844 15.574219 C 86 15.949219 85.945312 16.335938 85.914062 16.730469 L 47.109375 19.71875 C 46.484375 17.859375 44.734375 16.515625 42.664062 16.515625 C 40.957031 16.515625 39.46875 17.429688 38.648438 18.796875 L 2.320312 7.765625 C 2.148438 8.5 1.984375 9.246094 1.839844 9.992188 L 37.988281 20.96875 C 37.980469 21.046875 37.976562 21.125 37.976562 21.203125 C 37.976562 23.308594 39.363281 25.089844 41.277344 25.679688 L 40.269531 43.628906 C 38.492188 43.777344 36.890625 44.539062 35.675781 45.699219 L 1.445312 12.035156 C 1.285156 12.957031 1.136719 13.875 1.011719 14.800781 L 34.273438 47.507812 C 33.660156 48.601562 33.3125 49.859375 33.3125 51.199219 C 33.3125 53.269531 34.144531 55.140625 35.484375 56.515625 L 26.3125 68.070312 C 26.960938 68.460938 27.625 68.847656 28.300781 69.230469 L 37.300781 57.890625 C 38.371094 58.476562 39.605469 58.804688 40.917969 58.804688 C 42.300781 58.804688 43.601562 58.425781 44.714844 57.777344 L 70.0625 82.710938 C 69.65625 83.171875 69.269531 83.65625 68.914062 84.15625 C 81.789062 89.917969 91.9375 98.707031 99.890625 109.445312 C 100.664062 108.605469 101.363281 107.699219 101.980469 106.734375 L 138.546875 127.363281 C 138.242188 128.167969 138.066406 129.035156 138.054688 129.949219 L 113.113281 133.339844 C 113.40625 134.0625 113.699219 134.789062 113.980469 135.519531 L 138.359375 132.203125 C 138.804688 133.734375 139.722656 135.066406 140.949219 136.03125 C 137.945312 141.355469 133.429688 149.441406 128.53125 158.507812 C 128.183594 158.425781 127.824219 158.378906 127.449219 158.378906 C 126.585938 158.378906 125.777344 158.613281 125.085938 159.023438 L 119.742188 153.554688 C 120.109375 154.992188 120.464844 156.441406 120.800781 157.894531 C 121.644531 161.507812 122.382812 165.167969 123.03125 168.839844 C 123.25 170.074219 123.457031 171.308594 123.652344 172.550781 C 124.515625 170.894531 125.386719 169.234375 126.253906 167.59375 C 127.179688 167.839844 128.207031 167.839844 129.296875 167.351562 C 130.882812 166.636719 132.011719 165.117188 132.125 163.386719 C 132.230469 161.855469 131.59375 160.476562 130.550781 159.554688 C 135.425781 150.523438 139.929688 142.460938 142.921875 137.160156 C 144.015625 137.578125 145.222656 137.765625 146.492188 137.621094 C 150.195312 137.207031 153.113281 134.070312 153.253906 130.347656 C 153.402344 126.148438 150.144531 122.679688 146.023438 122.480469 Z M 136.09375 46.996094 L 138.273438 68.523438 C 137.039062 68.84375 135.925781 69.460938 135.015625 70.296875 L 111.675781 51.558594 C 111.949219 50.964844 112.109375 50.300781 112.109375 49.601562 C 112.109375 49.472656 112.101562 49.347656 112.089844 49.222656 L 131.332031 43.867188 C 132.144531 45.699219 133.96875 46.976562 136.09375 46.996094 Z M 99.875 21.414062 C 114.59375 28.21875 125.816406 35.21875 131.605469 39.089844 C 131.164062 39.835938 130.90625 40.703125 130.886719 41.632812 L 111.355469 47.0625 C 110.523438 45.769531 109.074219 44.917969 107.417969 44.917969 C 107.117188 44.917969 106.820312 44.945312 106.539062 45.003906 L 97.484375 23.753906 C 98.441406 23.160156 99.257812 22.359375 99.875 21.414062 Z M 42.539062 43.769531 L 43.542969 25.804688 C 45.460938 25.441406 46.953125 23.914062 47.28125 21.988281 L 86.089844 18.996094 C 86.210938 19.523438 86.386719 20.023438 86.605469 20.5 L 47.101562 46.78125 C 46.023438 45.273438 44.410156 44.179688 42.539062 43.769531 Z M 85.121094 75.886719 C 79.9375 75.886719 75.214844 77.851562 71.65625 81.082031 L 46.503906 56.347656 C 47.753906 54.992188 48.519531 53.1875 48.519531 51.199219 C 48.519531 50.367188 48.382812 49.566406 48.140625 48.820312 L 87.871094 22.390625 C 88.84375 23.464844 90.121094 24.253906 91.566406 24.632812 L 86.109375 75.910156 C 85.777344 75.894531 85.453125 75.886719 85.121094 75.886719 Z M 88.367188 76.152344 L 93.832031 24.875 C 94.367188 24.851562 94.890625 24.769531 95.394531 24.640625 L 104.472656 45.960938 C 103.410156 46.820312 102.734375 48.128906 102.734375 49.601562 C 102.734375 50.945312 103.304688 52.15625 104.210938 53.011719 L 92.664062 77.359375 C 91.300781 76.804688 89.863281 76.398438 88.367188 76.152344 Z M 94.71875 78.332031 L 106.199219 54.125 C 106.589844 54.226562 107 54.292969 107.417969 54.292969 C 108.484375 54.292969 109.464844 53.929688 110.253906 53.335938 L 133.589844 72.066406 C 132.9375 73.191406 132.554688 74.496094 132.554688 75.886719 C 132.554688 76.402344 132.613281 76.902344 132.707031 77.390625 L 103.527344 88.007812 C 101.753906 83.882812 98.636719 80.472656 94.71875 78.332031 Z M 139.667969 125.382812 L 103.101562 104.757812 C 104.414062 102.09375 105.15625 99.09375 105.15625 95.921875 C 105.15625 93.914062 104.855469 91.972656 104.304688 90.148438 L 133.484375 79.527344 C 134.71875 81.785156 137.066406 83.335938 139.789062 83.46875 L 143.761719 122.707031 C 142.117188 123.128906 140.6875 124.082031 139.667969 125.382812 Z M 139.667969 125.382812 " fill-opacity="1" fill-rule="nonzero"/></g></g></g></g></svg>