<svg xmlns="http://www.w3.org/2000/svg" xmlns:xlink="http://www.w3.org/1999/xlink" width="500" zoomAndPan="magnify" viewBox="0 0 375 149.999998" height="200" preserveAspectRatio="xMidYMid meet" version="1.0"><defs><filter x="0%" y="0%" width="100%" height="100%" id="1a1ad5c7cd"><feColorMatrix values="0 0 0 0 1 0 0 0 0 1 0 0 0 0 1 0 0 0 1 0" color-interpolation-filters="sRGB"/></filter><g/><mask id="e3aa7c01cb"><g filter="url(#1a1ad5c7cd)"><rect x="-37.5" width="450" fill="#000000" y="-15" height="179.999997" fill-opacity="0.28"/></g></mask><clipPath id="af9b413942"><path d="M 1 0.320312 L 57 0.320312 L 57 59.359375 L 1 59.359375 Z M 1 0.320312 " clip-rule="nonzero"/></clipPath><clipPath id="9654b67523"><rect x="0" width="57" y="0" height="60"/></clipPath><mask id="b4fabb58b2"><g filter="url(#1a1ad5c7cd)"><rect x="-37.5" width="450" fill="#000000" y="-15" height="179.999997" fill-opacity="0.1"/></g></mask><clipPath id="e8eea777d0"><path d="M 1 0.320312 L 28.921875 0.320312 L 28.921875 46.398438 L 1 46.398438 Z M 1 0.320312 " clip-rule="nonzero"/></clipPath><clipPath id="f1c7e8b037"><rect x="0" width="29" y="0" height="47"/></clipPath><mask id="d7961f6173"><g filter="url(#1a1ad5c7cd)"><rect x="-37.5" width="450" fill="#000000" y="-15" height="179.999997" fill-opacity="0.5"/></g></mask><clipPath id="43ee8ec450"><path d="M 1 0.320312 L 29.398438 0.320312 L 29.398438 59.359375 L 1 59.359375 Z M 1 0.320312 " clip-rule="nonzero"/></clipPath><clipPath id="502494e3ae"><rect x="0" width="30" y="0" height="60"/></clipPath><mask id="7b842b218b"><g filter="url(#1a1ad5c7cd)"><rect x="-37.5" width="450" fill="#000000" y="-15" height="179.999997" fill-opacity="0.21"/></g></mask><clipPath id="0129611bd8"><path d="M 0.921875 0.878906 L 25.398438 0.878906 L 25.398438 28.960938 L 0.921875 28.960938 Z M 0.921875 0.878906 " clip-rule="nonzero"/></clipPath><clipPath id="715e6058bf"><rect x="0" width="26" y="0" height="29"/></clipPath><mask id="c88a057f25"><g filter="url(#1a1ad5c7cd)"><rect x="-37.5" width="450" fill="#000000" y="-15" height="179.999997" fill-opacity="0.51"/></g></mask><clipPath id="af9e46ae80"><path d="M 1 0.320312 L 27 0.320312 L 27 59.359375 L 1 59.359375 Z M 1 0.320312 " clip-rule="nonzero"/></clipPath><clipPath id="0f10599752"><rect x="0" width="27" y="0" height="60"/></clipPath><mask id="8c6426d197"><g filter="url(#1a1ad5c7cd)"><rect x="-37.5" width="450" fill="#000000" y="-15" height="179.999997" fill-opacity="0.42"/></g></mask><clipPath id="c4735ed948"><path d="M 0.71875 0.160156 L 39.359375 0.160156 L 39.359375 43.601562 L 0.71875 43.601562 Z M 0.71875 0.160156 " clip-rule="nonzero"/></clipPath><clipPath id="1d9b2894cf"><rect x="0" width="40" y="0" height="44"/></clipPath></defs><path fill="#d11d4d" d="M 97.503906 68.945312 L 96.503906 59.0625 C 97.332031 58.851562 97.945312 58.101562 97.945312 57.207031 C 97.945312 56.179688 97.136719 55.34375 96.121094 55.296875 L 95.566406 49.808594 C 96.054688 49.582031 96.382812 49.070312 96.332031 48.488281 C 96.28125 47.863281 95.777344 47.351562 95.15625 47.289062 C 94.824219 47.253906 94.515625 47.339844 94.269531 47.511719 C 92.914062 46.597656 90.324219 44.960938 86.925781 43.328125 C 86.664062 43.203125 86.394531 43.078125 86.117188 42.949219 C 86.210938 42.609375 86.21875 42.238281 86.082031 41.84375 C 85.828125 41.109375 85.15625 40.574219 84.382812 40.53125 C 83.632812 40.488281 82.972656 40.878906 82.621094 41.472656 C 78.3125 39.816406 72.941406 38.363281 67.273438 38.308594 C 65.398438 38.292969 63.507812 38.472656 61.605469 38.851562 C 61.410156 38.890625 61.210938 38.933594 61.011719 38.976562 C 60.722656 38.289062 60.039062 37.804688 59.246094 37.804688 C 58.1875 37.804688 57.332031 38.664062 57.332031 39.71875 C 57.332031 39.824219 57.339844 39.925781 57.355469 40.023438 C 56.335938 40.378906 55.3125 40.792969 54.292969 41.261719 C 50.714844 42.914062 47.851562 44.921875 45.8125 46.59375 C 45.433594 46.316406 44.945312 46.171875 44.421875 46.242188 C 43.558594 46.355469 42.871094 47.0625 42.777344 47.925781 C 42.652344 49.082031 43.554688 50.058594 44.683594 50.058594 C 45.246094 50.058594 45.746094 49.8125 46.097656 49.425781 L 48.425781 50.976562 C 46.976562 51.316406 45.488281 51.800781 43.96875 52.449219 L 59.453125 61.300781 C 60.125 61.6875 60.699219 62.222656 61.125 62.875 L 67.097656 71.996094 C 67.5625 72.710938 67.546875 73.636719 67.050781 74.332031 L 63.835938 78.847656 L 65.832031 74.316406 C 66.136719 73.621094 66.039062 72.820312 65.578125 72.21875 L 60.039062 65.015625 L 59.949219 64.902344 C 59.28125 64.003906 58.328125 63.359375 57.242188 63.082031 L 52.644531 61.894531 L 39.886719 58.597656 C 39.886719 58.597656 39.886719 58.601562 39.886719 58.601562 C 40.71875 62.570312 42.417969 67.734375 41.652344 70.636719 C 40.886719 73.542969 36.640625 78.90625 34.378906 81.613281 C 33.726562 82.394531 34.078125 83.589844 35.054688 83.894531 C 36.433594 84.324219 38.160156 84.890625 39.128906 85.320312 C 40.109375 85.753906 39.855469 86.945312 39.425781 87.933594 C 39.078125 88.738281 39.539062 89.664062 40.386719 89.882812 L 42.496094 90.425781 L 40.882812 91.84375 C 40.460938 92.214844 40.5 92.890625 40.972656 93.195312 C 41.941406 93.816406 43.066406 95.253906 42.179688 98.476562 C 40.757812 103.632812 44.394531 103.613281 53.488281 104.046875 C 53.695312 104.058594 53.894531 104.074219 54.085938 104.097656 C 61.875 105.03125 53.488281 116.472656 52.9375 117.210938 L 52.914062 117.246094 C 52.910156 117.246094 52.910156 117.25 52.910156 117.25 C 66.023438 108.828125 78.175781 105.671875 89.773438 105.5625 C 89.773438 105.5625 88.398438 102.78125 87.527344 99.269531 C 88.253906 99.027344 88.785156 98.367188 88.832031 97.570312 C 88.898438 96.507812 88.023438 95.558594 86.960938 95.539062 C 86.601562 95.53125 86.261719 95.625 85.976562 95.789062 L 77.828125 85.457031 C 77.871094 85.410156 77.910156 85.363281 77.949219 85.3125 L 85.667969 89.578125 C 85.539062 89.917969 85.5 90.300781 85.601562 90.703125 C 85.796875 91.492188 86.488281 92.085938 87.300781 92.152344 C 88.433594 92.242188 89.378906 91.351562 89.378906 90.242188 C 89.378906 89.542969 89 88.933594 88.441406 88.597656 C 89.332031 86.542969 90.578125 84.035156 91.867188 81.5625 C 92.085938 81.144531 92.304688 80.726562 92.523438 80.3125 C 92.757812 80.375 93.015625 80.375 93.289062 80.25 C 93.691406 80.070312 93.972656 79.6875 94.003906 79.253906 C 94.03125 78.867188 93.871094 78.519531 93.605469 78.289062 C 94.835938 76.011719 95.96875 73.980469 96.722656 72.644531 C 97 72.75 97.300781 72.796875 97.621094 72.761719 C 98.554688 72.65625 99.292969 71.867188 99.324219 70.929688 C 99.363281 69.871094 98.542969 68.996094 97.503906 68.945312 Z M 95.003906 49.929688 L 95.550781 55.351562 C 95.242188 55.433594 94.960938 55.589844 94.730469 55.800781 L 88.851562 51.078125 C 88.921875 50.929688 88.960938 50.761719 88.960938 50.585938 C 88.960938 50.550781 88.957031 50.519531 88.957031 50.488281 L 93.804688 49.140625 C 94.007812 49.601562 94.46875 49.925781 95.003906 49.929688 Z M 94.148438 57.585938 L 86.796875 60.261719 C 86.351562 59.222656 85.566406 58.363281 84.578125 57.824219 L 87.472656 51.722656 C 87.570312 51.75 87.671875 51.765625 87.777344 51.765625 C 88.046875 51.765625 88.292969 51.675781 88.492188 51.527344 L 94.371094 56.246094 C 94.207031 56.527344 94.113281 56.855469 94.113281 57.207031 C 94.113281 57.335938 94.125 57.464844 94.148438 57.585938 Z M 86.410156 64.980469 L 95.621094 70.175781 C 95.542969 70.378906 95.5 70.597656 95.496094 70.828125 L 89.214844 71.683594 L 87.28125 71.945312 C 87.109375 71.507812 86.683594 71.203125 86.1875 71.203125 C 86.132812 71.203125 86.082031 71.207031 86.03125 71.214844 L 84.289062 66.832031 C 84.894531 66.550781 85.4375 66.148438 85.882812 65.664062 C 86.078125 65.449219 86.253906 65.222656 86.410156 64.980469 Z M 85.878906 43.484375 C 89.585938 45.199219 92.414062 46.960938 93.871094 47.9375 C 93.761719 48.125 93.695312 48.34375 93.691406 48.578125 L 88.769531 49.945312 C 88.5625 49.621094 88.195312 49.40625 87.777344 49.40625 C 87.703125 49.40625 87.628906 49.414062 87.554688 49.425781 L 85.277344 44.074219 C 85.515625 43.921875 85.722656 43.722656 85.878906 43.484375 Z M 84.355469 44.355469 C 84.488281 44.347656 84.621094 44.328125 84.75 44.296875 L 87.035156 49.667969 C 86.769531 49.882812 86.597656 50.214844 86.597656 50.585938 C 86.597656 50.921875 86.742188 51.230469 86.96875 51.445312 L 84.0625 57.578125 C 83.71875 57.4375 83.355469 57.335938 82.980469 57.273438 Z M 82.851562 43.730469 C 83.097656 44 83.421875 44.199219 83.785156 44.292969 L 82.410156 57.214844 C 82.324219 57.210938 82.242188 57.207031 82.160156 57.207031 C 80.855469 57.207031 79.664062 57.703125 78.769531 58.515625 L 72.429688 52.285156 C 72.746094 51.941406 72.941406 51.488281 72.941406 50.988281 C 72.941406 50.777344 72.90625 50.578125 72.84375 50.386719 Z M 59.609375 89.179688 C 59.734375 89.222656 59.871094 89.25 60.011719 89.25 C 60.292969 89.25 60.546875 89.152344 60.75 88.988281 L 66.578125 93.390625 C 66.535156 93.496094 66.503906 93.609375 66.492188 93.726562 L 59.933594 94.621094 C 59.777344 94.203125 59.386719 93.894531 58.921875 93.859375 C 58.878906 92.375 59.09375 90.800781 59.609375 89.179688 Z M 61.183594 87.933594 L 74.648438 84.847656 C 74.726562 85.039062 74.828125 85.214844 74.957031 85.371094 L 68.222656 92.8125 C 68.054688 92.722656 67.867188 92.675781 67.664062 92.675781 C 67.382812 92.675781 67.125 92.773438 66.925781 92.9375 L 61.097656 88.53125 C 61.160156 88.390625 61.191406 88.230469 61.191406 88.070312 C 61.191406 88.023438 61.1875 87.976562 61.183594 87.933594 Z M 69.75 105.199219 C 64.4375 104.660156 60.308594 101.085938 59.207031 96.152344 C 59.628906 96.011719 59.941406 95.640625 60 95.191406 L 66.570312 94.292969 C 66.742188 94.730469 67.167969 95.035156 67.664062 95.035156 C 67.671875 95.035156 67.675781 95.035156 67.683594 95.035156 L 70.136719 104.300781 C 69.898438 104.519531 69.746094 104.828125 69.746094 105.175781 C 69.746094 105.183594 69.75 105.191406 69.75 105.199219 Z M 68.234375 94.890625 C 68.597656 94.6875 68.847656 94.300781 68.847656 93.855469 C 68.847656 93.609375 68.773438 93.386719 68.648438 93.199219 L 75.386719 85.75 C 75.476562 85.8125 75.574219 85.863281 75.675781 85.90625 L 70.941406 103.996094 L 70.929688 103.996094 C 70.835938 103.996094 70.746094 104.007812 70.65625 104.027344 Z M 72.105469 105.242188 C 72.105469 105.21875 72.109375 105.199219 72.109375 105.175781 C 72.109375 104.96875 72.054688 104.769531 71.957031 104.597656 L 77.917969 96.597656 C 78.050781 96.648438 78.195312 96.679688 78.347656 96.679688 C 78.78125 96.679688 79.160156 96.445312 79.363281 96.097656 L 85.007812 97.546875 C 85.03125 97.976562 85.1875 98.363281 85.441406 98.671875 C 82.742188 101.410156 79.144531 103.855469 74.480469 104.898438 C 73.675781 105.078125 72.882812 105.191406 72.105469 105.242188 Z M 77.167969 95.496094 C 77.167969 95.789062 77.273438 96.058594 77.449219 96.265625 L 71.554688 104.179688 C 71.535156 104.164062 71.515625 104.152344 71.496094 104.140625 L 76.230469 86.050781 C 76.296875 86.058594 76.363281 86.0625 76.433594 86.0625 L 76.4375 86.0625 L 77.867188 94.417969 C 77.453125 94.605469 77.167969 95.015625 77.167969 95.496094 Z M 76.433594 82.230469 C 76.199219 82.230469 75.972656 82.273438 75.769531 82.351562 L 71.527344 74.671875 C 71.746094 74.453125 71.882812 74.15625 71.882812 73.824219 C 71.882812 73.597656 71.820312 73.390625 71.710938 73.210938 L 78.816406 66.035156 C 79.332031 66.492188 79.9375 66.84375 80.605469 67.058594 L 76.632812 82.242188 C 76.566406 82.234375 76.5 82.230469 76.433594 82.230469 Z M 64.957031 59.171875 L 67.84375 55.53125 L 70.113281 52.671875 C 70.382812 52.820312 70.691406 52.902344 71.023438 52.902344 C 71.371094 52.902344 71.699219 52.808594 71.980469 52.644531 L 78.367188 58.925781 C 78.265625 59.042969 78.167969 59.164062 78.078125 59.292969 C 77.605469 59.9375 77.285156 60.703125 77.164062 61.53125 L 65.347656 60.5 C 65.351562 60.445312 65.355469 60.394531 65.355469 60.339844 C 65.355469 59.898438 65.207031 59.492188 64.957031 59.171875 Z M 65.214844 61.0625 L 77.117188 62.101562 C 77.113281 62.152344 77.113281 62.203125 77.113281 62.253906 C 77.113281 62.78125 77.191406 63.285156 77.34375 63.765625 L 73.550781 65.191406 C 73.347656 64.828125 72.964844 64.582031 72.519531 64.582031 C 72.191406 64.582031 71.894531 64.71875 71.679688 64.933594 L 65.207031 61.085938 C 65.207031 61.078125 65.210938 61.070312 65.214844 61.0625 Z M 72.675781 66.933594 C 73.253906 66.855469 73.699219 66.363281 73.699219 65.765625 L 73.699219 65.75 L 77.546875 64.300781 C 77.761719 64.789062 78.054688 65.238281 78.410156 65.632812 L 71.304688 72.808594 C 71.292969 72.800781 71.277344 72.789062 71.261719 72.78125 Z M 72.582031 49.875 C 72.308594 49.496094 71.902344 49.21875 71.433594 49.117188 L 71.683594 44.589844 C 72.167969 44.496094 72.542969 44.113281 72.625 43.628906 L 82.40625 42.875 C 82.433594 43.007812 82.480469 43.132812 82.535156 43.253906 Z M 61.152344 39.519531 C 61.25 39.5 61.34375 39.476562 61.441406 39.457031 C 63.289062 39.074219 65.238281 38.859375 67.265625 38.878906 C 72.75 38.933594 77.988281 40.308594 82.40625 42.011719 C 82.382812 42.105469 82.367188 42.203125 82.359375 42.304688 L 72.582031 43.054688 C 72.425781 42.585938 71.984375 42.25 71.464844 42.25 C 71.035156 42.25 70.660156 42.480469 70.453125 42.824219 L 61.300781 40.046875 L 61.140625 39.996094 C 61.152344 39.90625 61.164062 39.816406 61.164062 39.71875 C 61.164062 39.652344 61.160156 39.585938 61.152344 39.519531 Z M 60.972656 40.542969 L 61.179688 40.605469 L 70.285156 43.371094 C 70.285156 43.390625 70.28125 43.410156 70.28125 43.429688 C 70.28125 43.960938 70.632812 44.410156 71.113281 44.558594 L 70.859375 49.078125 C 70.414062 49.117188 70.007812 49.308594 69.703125 49.601562 L 61.078125 41.121094 L 60.796875 40.84375 C 60.863281 40.75 60.921875 40.648438 60.972656 40.542969 Z M 57.523438 40.550781 C 57.703125 40.921875 57.996094 41.230469 58.363281 41.417969 L 55.953125 48.464844 C 55.921875 48.460938 55.890625 48.460938 55.855469 48.460938 C 55.40625 48.460938 55.015625 48.710938 54.816406 49.082031 L 46.59375 48.082031 C 46.582031 47.679688 46.445312 47.308594 46.222656 47.003906 C 48.636719 45.027344 52.574219 42.289062 57.523438 40.550781 Z M 61.875 59.234375 L 46.417969 48.949219 C 46.460938 48.855469 46.496094 48.753906 46.527344 48.652344 L 54.675781 49.644531 C 54.675781 50.292969 55.203125 50.820312 55.855469 50.820312 C 56 50.820312 56.140625 50.796875 56.269531 50.746094 L 62.023438 59.050781 C 61.972656 59.109375 61.921875 59.171875 61.875 59.234375 Z M 62.472656 58.6875 L 56.742188 50.421875 C 56.925781 50.214844 57.035156 49.941406 57.035156 49.640625 C 57.035156 49.226562 56.824219 48.859375 56.496094 48.652344 L 58.90625 41.605469 C 59.015625 41.625 59.128906 41.636719 59.246094 41.636719 C 59.277344 41.636719 59.308594 41.632812 59.335938 41.632812 L 62.734375 58.558594 C 62.644531 58.59375 62.554688 58.640625 62.472656 58.6875 Z M 63.292969 58.429688 L 59.898438 41.519531 C 60.078125 41.453125 60.246094 41.363281 60.394531 41.25 L 60.96875 41.816406 L 69.347656 50.058594 C 69.195312 50.332031 69.109375 50.648438 69.109375 50.988281 C 69.109375 51.507812 69.316406 51.980469 69.65625 52.328125 L 67.34375 55.238281 L 64.539062 58.773438 C 64.230469 58.550781 63.851562 58.421875 63.441406 58.421875 C 63.390625 58.421875 63.34375 58.425781 63.292969 58.429688 Z M 64.496094 61.9375 C 64.648438 61.835938 64.785156 61.714844 64.902344 61.574219 L 71.386719 65.425781 C 71.355469 65.535156 71.335938 65.648438 71.335938 65.765625 C 71.335938 66.269531 71.65625 66.699219 72.101562 66.867188 L 70.707031 72.640625 L 70.703125 72.640625 C 70.609375 72.640625 70.515625 72.65625 70.425781 72.675781 Z M 66.664062 79.082031 C 68.136719 77.769531 69.289062 76.351562 70.15625 74.871094 C 70.320312 74.953125 70.503906 75.003906 70.703125 75.003906 C 70.816406 75.003906 70.925781 74.988281 71.03125 74.957031 L 75.265625 82.628906 C 74.808594 82.980469 74.515625 83.527344 74.515625 84.148438 C 74.515625 84.195312 74.519531 84.242188 74.523438 84.289062 L 60.976562 87.390625 C 60.851562 87.214844 60.679688 87.070312 60.476562 86.984375 C 61.710938 84.386719 63.722656 81.707031 66.664062 79.082031 Z M 85.523438 96.144531 C 85.308594 96.375 85.148438 96.65625 85.070312 96.972656 L 79.527344 95.546875 C 79.527344 95.53125 79.527344 95.515625 79.527344 95.496094 C 79.527344 94.871094 79.042969 94.363281 78.429688 94.320312 L 77.003906 85.976562 C 77.136719 85.933594 77.261719 85.878906 77.378906 85.8125 Z M 77.421875 82.507812 C 77.34375 82.460938 77.269531 82.421875 77.1875 82.386719 L 81.160156 67.203125 C 81.484375 67.269531 81.820312 67.300781 82.160156 67.300781 C 82.71875 67.300781 83.253906 67.210938 83.753906 67.042969 L 85.496094 71.425781 C 85.199219 71.640625 85.003906 71.988281 85.003906 72.382812 C 85.003906 72.644531 85.089844 72.886719 85.234375 73.082031 Z M 85.941406 89.078125 L 78.226562 84.8125 C 78.304688 84.605469 78.347656 84.382812 78.347656 84.144531 C 78.347656 83.65625 78.164062 83.210938 77.859375 82.871094 L 85.675781 73.449219 C 85.765625 73.488281 85.855469 73.523438 85.957031 73.542969 L 87.039062 88.375 C 86.59375 88.472656 86.210938 88.726562 85.941406 89.078125 Z M 91.710938 80.625 C 90.292969 83.328125 88.890625 86.125 87.910156 88.382812 C 87.8125 88.359375 87.710938 88.339844 87.609375 88.332031 L 86.527344 73.511719 C 86.617188 73.484375 86.703125 73.449219 86.78125 73.402344 L 91.148438 77.867188 L 91.820312 78.554688 C 91.710938 78.734375 91.644531 78.945312 91.644531 79.171875 C 91.644531 79.515625 91.789062 79.820312 92.023438 80.035156 C 91.917969 80.234375 91.8125 80.429688 91.710938 80.625 Z M 93.097656 78.023438 C 93.011719 78.003906 92.917969 77.992188 92.824219 77.992188 C 92.609375 77.992188 92.402344 78.050781 92.230469 78.152344 L 90.882812 76.777344 L 87.191406 73 C 87.28125 72.855469 87.339844 72.691406 87.359375 72.511719 L 89.433594 72.230469 L 95.574219 71.394531 C 95.6875 71.78125 95.917969 72.117188 96.226562 72.359375 C 95.46875 73.703125 94.332031 75.738281 93.097656 78.023438 Z M 95.902344 69.675781 L 86.691406 64.480469 C 87.019531 63.808594 87.207031 63.054688 87.207031 62.253906 C 87.207031 61.75 87.132812 61.261719 86.992188 60.800781 L 94.34375 58.125 C 94.65625 58.695312 95.246094 59.085938 95.933594 59.117188 L 96.933594 69.003906 C 96.519531 69.109375 96.160156 69.351562 95.902344 69.675781 Z M 95.902344 69.675781 " fill-opacity="1" fill-rule="nonzero"/><path fill="#fff743" d="M 66 49.265625 C 66 49.433594 65.9375 49.578125 65.820312 49.695312 C 65.699219 49.816406 65.554688 49.875 65.386719 49.875 C 65.21875 49.875 65.074219 49.816406 64.957031 49.695312 C 64.835938 49.578125 64.777344 49.433594 64.777344 49.265625 C 64.777344 49.09375 64.835938 48.953125 64.957031 48.832031 C 65.074219 48.714844 65.21875 48.652344 65.386719 48.652344 C 65.554688 48.652344 65.699219 48.714844 65.820312 48.832031 C 65.9375 48.953125 66 49.09375 66 49.265625 Z M 66 49.265625 " fill-opacity="1" fill-rule="nonzero"/><path fill="#fff743" d="M 69.65625 40.683594 C 69.65625 40.871094 69.589844 41.03125 69.457031 41.160156 C 69.324219 41.292969 69.164062 41.359375 68.976562 41.359375 C 68.789062 41.359375 68.628906 41.292969 68.496094 41.160156 C 68.363281 41.03125 68.296875 40.871094 68.296875 40.683594 C 68.296875 40.496094 68.363281 40.335938 68.496094 40.203125 C 68.628906 40.070312 68.789062 40.003906 68.976562 40.003906 C 69.164062 40.003906 69.324219 40.070312 69.457031 40.203125 C 69.589844 40.335938 69.65625 40.496094 69.65625 40.683594 Z M 69.65625 40.683594 " fill-opacity="1" fill-rule="nonzero"/><path fill="#fff743" d="M 82.40625 35.179688 C 82.40625 35.425781 82.359375 35.664062 82.265625 35.890625 C 82.171875 36.117188 82.035156 36.316406 81.863281 36.488281 C 81.6875 36.664062 81.488281 36.796875 81.261719 36.890625 C 81.035156 36.984375 80.796875 37.03125 80.550781 37.03125 C 80.308594 37.03125 80.070312 36.984375 79.84375 36.890625 C 79.617188 36.796875 79.417969 36.664062 79.242188 36.488281 C 79.070312 36.316406 78.933594 36.117188 78.839844 35.890625 C 78.746094 35.664062 78.699219 35.425781 78.699219 35.179688 C 78.699219 34.933594 78.746094 34.699219 78.839844 34.472656 C 78.933594 34.246094 79.070312 34.042969 79.242188 33.871094 C 79.417969 33.695312 79.617188 33.5625 79.84375 33.46875 C 80.070312 33.375 80.308594 33.328125 80.550781 33.328125 C 80.796875 33.328125 81.035156 33.375 81.261719 33.46875 C 81.488281 33.5625 81.6875 33.695312 81.863281 33.871094 C 82.035156 34.042969 82.171875 34.246094 82.265625 34.472656 C 82.359375 34.699219 82.40625 34.933594 82.40625 35.179688 Z M 82.40625 35.179688 " fill-opacity="1" fill-rule="nonzero"/><path fill="#fff743" d="M 104.472656 47.691406 C 104.472656 47.847656 104.414062 47.980469 104.304688 48.09375 C 104.195312 48.203125 104.0625 48.257812 103.90625 48.257812 C 103.75 48.257812 103.617188 48.203125 103.503906 48.09375 C 103.394531 47.980469 103.339844 47.847656 103.339844 47.691406 C 103.339844 47.535156 103.394531 47.402344 103.503906 47.292969 C 103.617188 47.179688 103.75 47.125 103.90625 47.125 C 104.0625 47.125 104.195312 47.179688 104.304688 47.292969 C 104.414062 47.402344 104.472656 47.535156 104.472656 47.691406 Z M 104.472656 47.691406 " fill-opacity="1" fill-rule="nonzero"/><path fill="#fff743" d="M 101.617188 56.574219 C 101.617188 56.6875 101.574219 56.785156 101.496094 56.867188 C 101.414062 56.945312 101.316406 56.988281 101.203125 56.988281 C 101.089844 56.988281 100.992188 56.945312 100.910156 56.867188 C 100.828125 56.785156 100.789062 56.6875 100.789062 56.574219 C 100.789062 56.457031 100.828125 56.363281 100.910156 56.28125 C 100.992188 56.199219 101.089844 56.160156 101.203125 56.160156 C 101.316406 56.160156 101.414062 56.199219 101.496094 56.28125 C 101.574219 56.363281 101.617188 56.457031 101.617188 56.574219 Z M 101.617188 56.574219 " fill-opacity="1" fill-rule="nonzero"/><path fill="#fff743" d="M 92.953125 40.003906 C 92.953125 40.210938 92.878906 40.390625 92.734375 40.535156 C 92.585938 40.683594 92.410156 40.757812 92.203125 40.757812 C 91.996094 40.757812 91.816406 40.683594 91.671875 40.535156 C 91.523438 40.390625 91.449219 40.210938 91.449219 40.003906 C 91.449219 39.796875 91.523438 39.621094 91.671875 39.472656 C 91.816406 39.328125 91.996094 39.253906 92.203125 39.253906 C 92.410156 39.253906 92.585938 39.328125 92.734375 39.472656 C 92.878906 39.621094 92.953125 39.796875 92.953125 40.003906 Z M 92.953125 40.003906 " fill-opacity="1" fill-rule="nonzero"/><path fill="#fff743" d="M 102.835938 64.980469 C 102.835938 65.121094 102.808594 65.257812 102.753906 65.390625 C 102.703125 65.519531 102.625 65.636719 102.523438 65.738281 C 102.421875 65.835938 102.308594 65.914062 102.175781 65.96875 C 102.046875 66.023438 101.910156 66.050781 101.769531 66.050781 C 101.625 66.050781 101.488281 66.023438 101.359375 65.96875 C 101.226562 65.914062 101.113281 65.835938 101.011719 65.738281 C 100.910156 65.636719 100.835938 65.519531 100.78125 65.390625 C 100.726562 65.257812 100.699219 65.121094 100.699219 64.980469 C 100.699219 64.839844 100.726562 64.703125 100.78125 64.570312 C 100.835938 64.441406 100.910156 64.324219 101.011719 64.222656 C 101.113281 64.125 101.226562 64.046875 101.359375 63.992188 C 101.488281 63.9375 101.625 63.910156 101.769531 63.910156 C 101.910156 63.910156 102.046875 63.9375 102.175781 63.992188 C 102.308594 64.046875 102.421875 64.125 102.523438 64.222656 C 102.625 64.324219 102.703125 64.441406 102.753906 64.570312 C 102.808594 64.703125 102.835938 64.839844 102.835938 64.980469 Z M 102.835938 64.980469 " fill-opacity="1" fill-rule="nonzero"/><path fill="#fff743" d="M 96.226562 88.460938 C 96.226562 88.71875 96.136719 88.9375 95.953125 89.117188 C 95.773438 89.296875 95.554688 89.386719 95.300781 89.386719 C 95.042969 89.386719 94.824219 89.296875 94.644531 89.117188 C 94.464844 88.9375 94.375 88.71875 94.375 88.460938 C 94.375 88.207031 94.464844 87.988281 94.644531 87.808594 C 94.824219 87.625 95.042969 87.535156 95.300781 87.535156 C 95.554688 87.535156 95.773438 87.625 95.953125 87.808594 C 96.136719 87.988281 96.226562 88.207031 96.226562 88.460938 Z M 96.226562 88.460938 " fill-opacity="1" fill-rule="nonzero"/><path fill="#fff743" d="M 82.535156 71.78125 C 82.535156 71.949219 82.476562 72.089844 82.363281 72.203125 C 82.246094 72.320312 82.105469 72.378906 81.941406 72.378906 C 81.773438 72.378906 81.632812 72.320312 81.519531 72.203125 C 81.402344 72.089844 81.34375 71.949219 81.34375 71.78125 C 81.34375 71.617188 81.402344 71.476562 81.519531 71.363281 C 81.632812 71.246094 81.773438 71.1875 81.941406 71.1875 C 82.105469 71.1875 82.246094 71.246094 82.363281 71.363281 C 82.476562 71.476562 82.535156 71.617188 82.535156 71.78125 Z M 82.535156 71.78125 " fill-opacity="1" fill-rule="nonzero"/><path fill="#fff743" d="M 84.578125 81.289062 C 84.578125 81.398438 84.539062 81.492188 84.460938 81.570312 C 84.386719 81.648438 84.292969 81.6875 84.183594 81.6875 C 84.070312 81.6875 83.976562 81.648438 83.902344 81.570312 C 83.824219 81.492188 83.785156 81.398438 83.785156 81.289062 C 83.785156 81.179688 83.824219 81.085938 83.902344 81.007812 C 83.976562 80.929688 84.070312 80.890625 84.183594 80.890625 C 84.292969 80.890625 84.386719 80.929688 84.460938 81.007812 C 84.539062 81.085938 84.578125 81.179688 84.578125 81.289062 Z M 84.578125 81.289062 " fill-opacity="1" fill-rule="nonzero"/><path fill="#fff743" d="M 69.65625 81.570312 C 69.65625 81.757812 69.589844 81.917969 69.457031 82.050781 C 69.324219 82.183594 69.164062 82.25 68.976562 82.25 C 68.789062 82.25 68.628906 82.183594 68.496094 82.050781 C 68.363281 81.917969 68.296875 81.757812 68.296875 81.570312 C 68.296875 81.382812 68.363281 81.222656 68.496094 81.089844 C 68.628906 80.957031 68.789062 80.890625 68.976562 80.890625 C 69.164062 80.890625 69.324219 80.957031 69.457031 81.089844 C 69.589844 81.222656 69.65625 81.382812 69.65625 81.570312 Z M 69.65625 81.570312 " fill-opacity="1" fill-rule="nonzero"/><path fill="#fff743" d="M 80.605469 51.101562 C 80.605469 51.363281 80.511719 51.589844 80.328125 51.773438 C 80.140625 51.960938 79.917969 52.054688 79.652344 52.054688 C 79.390625 52.054688 79.164062 51.960938 78.980469 51.773438 C 78.792969 51.589844 78.699219 51.363281 78.699219 51.101562 C 78.699219 50.835938 78.792969 50.613281 78.980469 50.425781 C 79.164062 50.238281 79.390625 50.148438 79.652344 50.148438 C 79.917969 50.148438 80.140625 50.238281 80.328125 50.425781 C 80.511719 50.613281 80.605469 50.835938 80.605469 51.101562 Z M 80.605469 51.101562 " fill-opacity="1" fill-rule="nonzero"/><path fill="#fff743" d="M 102.929688 37.804688 C 102.929688 37.976562 102.894531 38.144531 102.828125 38.304688 C 102.761719 38.46875 102.667969 38.609375 102.542969 38.730469 C 102.421875 38.855469 102.277344 38.949219 102.117188 39.015625 C 101.957031 39.082031 101.789062 39.117188 101.617188 39.117188 C 101.441406 39.117188 101.273438 39.082031 101.113281 39.015625 C 100.953125 38.949219 100.808594 38.855469 100.6875 38.730469 C 100.5625 38.609375 100.46875 38.46875 100.402344 38.304688 C 100.335938 38.144531 100.304688 37.976562 100.304688 37.804688 C 100.304688 37.628906 100.335938 37.460938 100.402344 37.300781 C 100.46875 37.140625 100.5625 37 100.6875 36.875 C 100.808594 36.753906 100.953125 36.65625 101.113281 36.589844 C 101.273438 36.523438 101.441406 36.492188 101.617188 36.492188 C 101.789062 36.492188 101.957031 36.523438 102.117188 36.589844 C 102.277344 36.65625 102.421875 36.753906 102.542969 36.875 C 102.667969 37 102.761719 37.140625 102.828125 37.300781 C 102.894531 37.460938 102.929688 37.628906 102.929688 37.804688 Z M 102.929688 37.804688 " fill-opacity="1" fill-rule="nonzero"/><g mask="url(#e3aa7c01cb)"><g transform="matrix(1, 0, 0, 1, 33, 58)"><g clip-path="url(#9654b67523)"><g clip-path="url(#af9b413942)"><path fill="#fff743" d="M 19.9375 59.210938 C 20.488281 58.472656 28.875 47.03125 21.085938 46.097656 C 20.894531 46.074219 20.695312 46.058594 20.488281 46.046875 C 11.394531 45.613281 7.757812 45.632812 9.179688 40.476562 C 10.066406 37.253906 8.941406 35.816406 7.972656 35.195312 C 7.5 34.890625 7.460938 34.214844 7.882812 33.84375 L 9.496094 32.425781 L 7.386719 31.882812 C 6.539062 31.664062 6.078125 30.738281 6.425781 29.933594 C 6.855469 28.945312 7.109375 27.753906 6.128906 27.320312 C 5.160156 26.890625 3.433594 26.324219 2.054688 25.894531 C 1.078125 25.589844 0.726562 24.394531 1.378906 23.613281 C 3.640625 20.90625 7.886719 15.542969 8.652344 12.636719 C 9.417969 9.734375 7.71875 4.570312 6.886719 0.601562 C 6.886719 0.601562 6.886719 0.597656 6.886719 0.597656 L 19.644531 3.894531 L 24.242188 5.082031 C 25.328125 5.359375 26.28125 6.003906 26.949219 6.902344 L 27.039062 7.015625 L 32.578125 14.21875 C 33.039062 14.820312 33.136719 15.621094 32.832031 16.316406 L 30.835938 20.847656 C 30.835938 20.847656 12.859375 38.523438 25.917969 45.398438 C 38.976562 52.273438 43.914062 45.601562 56.773438 47.5625 C 45.175781 47.671875 33.023438 50.828125 19.910156 59.25 C 19.910156 59.25 19.910156 59.246094 19.914062 59.246094 Z M 19.9375 59.210938 " fill-opacity="1" fill-rule="nonzero"/></g></g></g></g><g mask="url(#b4fabb58b2)"><g transform="matrix(1, 0, 0, 1, 33, 58)"><g clip-path="url(#f1c7e8b037)"><g clip-path="url(#e8eea777d0)"><path fill="#000000" d="M 24.882812 26.847656 C 19.351562 37.449219 19.839844 43.207031 21.085938 46.097656 C 20.894531 46.074219 20.695312 46.058594 20.488281 46.046875 C 11.394531 45.613281 7.757812 45.632812 9.179688 40.476562 C 10.066406 37.253906 8.941406 35.816406 7.972656 35.195312 C 7.5 34.890625 7.460938 34.214844 7.882812 33.84375 L 9.496094 32.425781 L 7.386719 31.882812 C 6.539062 31.664062 6.078125 30.738281 6.425781 29.933594 C 6.855469 28.945312 7.109375 27.753906 6.128906 27.320312 C 5.160156 26.890625 3.433594 26.324219 2.054688 25.894531 C 1.078125 25.589844 0.726562 24.394531 1.378906 23.613281 C 3.640625 20.90625 7.886719 15.542969 8.652344 12.636719 C 9.417969 9.734375 7.71875 4.570312 6.886719 0.601562 C 6.886719 0.601562 6.886719 0.597656 6.886719 0.597656 L 19.644531 3.894531 L 24.242188 5.082031 C 25.328125 5.359375 26.28125 6.003906 26.949219 6.902344 L 27.039062 7.015625 C 28.984375 10.445312 30.195312 16.667969 24.882812 26.847656 Z M 24.882812 26.847656 " fill-opacity="1" fill-rule="nonzero"/></g></g></g></g><g mask="url(#d7961f6173)"><g transform="matrix(1, 0, 0, 1, 33, 58)"><g clip-path="url(#502494e3ae)"><g clip-path="url(#43ee8ec450)"><path fill="#fff743" d="M 19.9375 59.210938 C 20.5 58.457031 29.289062 46.46875 20.488281 46.046875 C 11.394531 45.613281 7.757812 45.632812 9.179688 40.476562 C 10.066406 37.253906 8.941406 35.816406 7.972656 35.195312 C 7.5 34.890625 7.460938 34.214844 7.882812 33.84375 L 9.496094 32.425781 L 7.386719 31.882812 C 6.539062 31.664062 6.078125 30.738281 6.425781 29.933594 C 6.855469 28.945312 7.109375 27.753906 6.128906 27.320312 C 5.160156 26.890625 3.433594 26.324219 2.054688 25.894531 C 1.078125 25.589844 0.726562 24.394531 1.378906 23.613281 C 3.640625 20.90625 7.886719 15.542969 8.652344 12.636719 C 9.417969 9.734375 7.71875 4.570312 6.886719 0.601562 C 6.886719 0.601562 6.886719 0.597656 6.886719 0.597656 L 19.644531 3.894531 L 21.304688 6.4375 C 24.34375 11.09375 24.710938 17.003906 22.269531 21.996094 L 19.488281 27.679688 C 16.246094 34.308594 19.464844 42.289062 26.402344 44.816406 C 29.390625 45.90625 30.167969 49.773438 27.828125 51.933594 Z M 19.9375 59.210938 " fill-opacity="1" fill-rule="nonzero"/></g></g></g></g><g mask="url(#7b842b218b)"><g transform="matrix(1, 0, 0, 1, 43, 50)"><g clip-path="url(#715e6058bf)"><g clip-path="url(#0129611bd8)"><path fill="#000000" d="M 24.050781 24.332031 C 24.546875 23.636719 24.5625 22.710938 24.097656 21.996094 L 18.125 12.875 C 17.699219 12.222656 17.125 11.6875 16.453125 11.300781 L 0.96875 2.449219 C 2.488281 1.800781 3.976562 1.316406 5.425781 0.976562 L 18.726562 10.632812 C 19.113281 10.914062 19.433594 11.285156 19.65625 11.710938 L 24.746094 21.535156 C 25.339844 22.683594 25.15625 24.082031 24.289062 25.039062 L 20.835938 28.84375 Z M 24.050781 24.332031 " fill-opacity="1" fill-rule="nonzero"/></g></g></g></g><path fill="#fff743" d="M 67.050781 74.332031 C 67.546875 73.636719 67.5625 72.710938 67.097656 71.996094 L 61.125 62.875 C 60.699219 62.222656 60.125 61.6875 59.453125 61.300781 L 43.96875 52.449219 C 45.488281 51.800781 46.976562 51.316406 48.425781 50.976562 L 61.726562 60.632812 C 62.113281 60.914062 62.433594 61.285156 62.65625 61.710938 L 67.746094 71.535156 C 68.339844 72.683594 68.15625 74.082031 67.289062 75.039062 L 63.835938 78.84375 Z M 67.050781 74.332031 " fill-opacity="1" fill-rule="nonzero"/><g mask="url(#c88a057f25)"><g transform="matrix(1, 0, 0, 1, 33, 58)"><g clip-path="url(#0f10599752)"><g clip-path="url(#af9e46ae80)"><path fill="#fff743" d="M 26.816406 49.636719 C 26.816406 50.652344 26.46875 51.683594 25.730469 52.535156 L 19.9375 59.210938 C 20.421875 58.5625 26.960938 49.644531 23.246094 46.859375 C 23.023438 46.691406 22.761719 46.546875 22.460938 46.425781 C 21.933594 46.21875 21.28125 46.085938 20.488281 46.046875 C 11.394531 45.613281 7.757812 45.632812 9.179688 40.476562 C 10.066406 37.253906 8.941406 35.816406 7.972656 35.195312 C 7.5 34.890625 7.460938 34.214844 7.882812 33.84375 L 9.496094 32.425781 L 7.386719 31.882812 C 6.539062 31.664062 6.078125 30.738281 6.425781 29.933594 C 6.855469 28.945312 7.109375 27.753906 6.128906 27.320312 C 5.160156 26.890625 3.433594 26.324219 2.054688 25.894531 C 1.078125 25.589844 0.726562 24.394531 1.378906 23.613281 C 3.113281 21.535156 6.019531 17.898438 7.621094 15 C 8.109375 14.121094 8.476562 13.3125 8.652344 12.636719 C 9.417969 9.734375 7.71875 4.570312 6.886719 0.601562 C 6.886719 0.601562 6.886719 0.597656 6.886719 0.597656 L 12.957031 8.152344 C 16.632812 12.726562 17.863281 18.804688 16.25 24.449219 L 15.109375 28.441406 C 13.0625 35.625 17.015625 43.152344 24.09375 45.539062 C 25.839844 46.269531 26.816406 47.933594 26.816406 49.636719 Z M 26.816406 49.636719 " fill-opacity="1" fill-rule="nonzero"/></g></g></g></g><path fill="#fff743" d="M 55.460938 104.425781 C 54.933594 104.21875 54.28125 104.085938 53.488281 104.046875 C 44.394531 103.613281 40.757812 103.632812 42.179688 98.476562 C 43.066406 95.253906 41.941406 93.816406 40.972656 93.195312 C 40.5 92.890625 40.460938 92.214844 40.882812 91.84375 L 42.496094 90.425781 L 40.386719 89.882812 C 39.539062 89.664062 39.078125 88.738281 39.425781 87.933594 C 39.855469 86.945312 40.109375 85.753906 39.128906 85.320312 C 38.160156 84.890625 36.433594 84.324219 35.054688 83.894531 C 34.078125 83.589844 33.726562 82.394531 34.378906 81.613281 C 36.113281 79.535156 39.019531 75.898438 40.621094 73 C 43.121094 76.304688 44.539062 80.339844 44.621094 84.542969 L 44.707031 88.925781 C 44.824219 94.917969 48.132812 100.390625 53.382812 103.285156 Z M 55.460938 104.425781 " fill-opacity="1" fill-rule="nonzero"/><g mask="url(#8c6426d197)"><g transform="matrix(1, 0, 0, 1, 60, 38)"><g clip-path="url(#1d9b2894cf)"><g clip-path="url(#c4735ed948)"><path fill="#fff743" d="M 37.503906 30.945312 L 36.503906 21.0625 C 37.332031 20.851562 37.945312 20.101562 37.945312 19.207031 C 37.945312 18.179688 37.136719 17.34375 36.121094 17.296875 L 35.566406 11.808594 C 36.054688 11.582031 36.382812 11.070312 36.332031 10.488281 C 36.28125 9.863281 35.777344 9.351562 35.15625 9.289062 C 34.824219 9.253906 34.515625 9.339844 34.269531 9.511719 C 32.914062 8.597656 30.324219 6.960938 26.925781 5.328125 C 26.664062 5.203125 26.394531 5.078125 26.117188 4.949219 C 26.210938 4.609375 26.21875 4.238281 26.082031 3.84375 C 25.828125 3.109375 25.15625 2.574219 24.382812 2.53125 C 23.632812 2.488281 22.972656 2.878906 22.621094 3.472656 C 18.3125 1.816406 12.941406 0.363281 7.273438 0.308594 C 5.398438 0.292969 3.507812 0.472656 1.605469 0.851562 C 1.550781 1.050781 1.496094 1.253906 1.441406 1.457031 C 3.289062 1.074219 5.238281 0.859375 7.265625 0.878906 C 12.75 0.933594 17.988281 2.308594 22.40625 4.011719 C 22.382812 4.105469 22.367188 4.203125 22.359375 4.304688 L 12.582031 5.054688 C 12.425781 4.585938 11.984375 4.25 11.464844 4.25 C 11.035156 4.25 10.660156 4.480469 10.453125 4.824219 L 1.300781 2.046875 C 1.253906 2.230469 1.214844 2.417969 1.179688 2.605469 L 10.285156 5.371094 C 10.285156 5.390625 10.28125 5.410156 10.28125 5.429688 C 10.28125 5.960938 10.632812 6.410156 11.113281 6.558594 L 10.859375 11.078125 C 10.414062 11.117188 10.007812 11.308594 9.703125 11.601562 L 1.078125 3.121094 C 1.039062 3.351562 1 3.582031 0.96875 3.816406 L 9.347656 12.058594 C 9.195312 12.332031 9.109375 12.648438 9.109375 12.988281 C 9.109375 13.507812 9.316406 13.980469 9.65625 14.328125 L 7.34375 17.238281 C 7.507812 17.335938 7.675781 17.433594 7.84375 17.53125 L 10.113281 14.671875 C 10.382812 14.820312 10.691406 14.902344 11.023438 14.902344 C 11.371094 14.902344 11.699219 14.808594 11.980469 14.644531 L 18.367188 20.925781 C 18.265625 21.042969 18.167969 21.164062 18.078125 21.292969 C 21.320312 22.742188 23.878906 24.957031 25.882812 27.664062 C 26.078125 27.449219 26.253906 27.222656 26.410156 26.980469 L 35.621094 32.175781 C 35.542969 32.378906 35.5 32.597656 35.496094 32.828125 L 29.214844 33.683594 C 29.285156 33.863281 29.359375 34.046875 29.433594 34.230469 L 35.574219 33.394531 C 35.6875 33.78125 35.917969 34.117188 36.226562 34.359375 C 35.46875 35.703125 34.332031 37.738281 33.097656 40.023438 C 33.011719 40.003906 32.917969 39.992188 32.824219 39.992188 C 32.609375 39.992188 32.402344 40.050781 32.230469 40.152344 L 30.882812 38.777344 C 30.976562 39.136719 31.066406 39.503906 31.148438 39.867188 C 31.363281 40.78125 31.546875 41.703125 31.710938 42.625 C 31.765625 42.9375 31.820312 43.25 31.867188 43.5625 C 32.085938 43.144531 32.304688 42.726562 32.523438 42.3125 C 32.757812 42.375 33.015625 42.375 33.289062 42.25 C 33.691406 42.070312 33.972656 41.6875 34.003906 41.253906 C 34.03125 40.867188 33.871094 40.519531 33.605469 40.289062 C 34.835938 38.011719 35.96875 35.980469 36.722656 34.644531 C 37 34.75 37.300781 34.796875 37.621094 34.761719 C 38.554688 34.65625 39.292969 33.867188 39.324219 32.929688 C 39.363281 31.871094 38.542969 30.996094 37.503906 30.945312 Z M 35.003906 11.929688 L 35.550781 17.351562 C 35.242188 17.433594 34.960938 17.589844 34.730469 17.800781 L 28.851562 13.078125 C 28.921875 12.929688 28.960938 12.761719 28.960938 12.585938 C 28.960938 12.550781 28.957031 12.519531 28.957031 12.488281 L 33.804688 11.140625 C 34.007812 11.601562 34.46875 11.925781 35.003906 11.929688 Z M 25.878906 5.484375 C 29.585938 7.199219 32.414062 8.960938 33.871094 9.9375 C 33.761719 10.125 33.695312 10.34375 33.691406 10.578125 L 28.769531 11.945312 C 28.5625 11.621094 28.195312 11.40625 27.777344 11.40625 C 27.703125 11.40625 27.628906 11.414062 27.554688 11.425781 L 25.277344 6.074219 C 25.515625 5.921875 25.722656 5.722656 25.878906 5.484375 Z M 11.433594 11.117188 L 11.683594 6.589844 C 12.167969 6.496094 12.542969 6.113281 12.625 5.628906 L 22.40625 4.875 C 22.433594 5.007812 22.480469 5.132812 22.535156 5.253906 L 12.582031 11.875 C 12.308594 11.496094 11.902344 11.21875 11.433594 11.117188 Z M 22.160156 19.207031 C 20.855469 19.207031 19.664062 19.703125 18.769531 20.515625 L 12.429688 14.285156 C 12.746094 13.941406 12.941406 13.488281 12.941406 12.988281 C 12.941406 12.777344 12.90625 12.578125 12.84375 12.386719 L 22.851562 5.730469 C 23.097656 6 23.421875 6.199219 23.785156 6.292969 L 22.410156 19.214844 C 22.324219 19.210938 22.242188 19.207031 22.160156 19.207031 Z M 22.980469 19.273438 L 24.355469 6.355469 C 24.488281 6.347656 24.621094 6.328125 24.75 6.296875 L 27.035156 11.667969 C 26.769531 11.882812 26.597656 12.214844 26.597656 12.585938 C 26.597656 12.921875 26.742188 13.230469 26.96875 13.445312 L 24.0625 19.578125 C 23.71875 19.4375 23.355469 19.335938 22.980469 19.273438 Z M 24.578125 19.824219 L 27.472656 13.722656 C 27.570312 13.75 27.671875 13.765625 27.777344 13.765625 C 28.046875 13.765625 28.292969 13.675781 28.492188 13.527344 L 34.371094 18.246094 C 34.207031 18.527344 34.113281 18.855469 34.113281 19.207031 C 34.113281 19.335938 34.125 19.464844 34.148438 19.585938 L 26.796875 22.261719 C 26.351562 21.222656 25.566406 20.363281 24.578125 19.824219 Z M 35.902344 31.675781 L 26.691406 26.480469 C 27.019531 25.808594 27.207031 25.054688 27.207031 24.253906 C 27.207031 23.75 27.132812 23.261719 26.992188 22.800781 L 34.34375 20.125 C 34.65625 20.695312 35.246094 21.085938 35.933594 21.117188 L 36.933594 31.003906 C 36.519531 31.109375 36.160156 31.351562 35.902344 31.675781 Z M 35.902344 31.675781 " fill-opacity="1" fill-rule="nonzero"/></g></g></g></g><g fill="#ed3c6b" fill-opacity="1"><g transform="translate(130.408481, 68.133065)"><g><path d="M 0 0 L 6.71875 -22.9375 L 16.1875 -22.9375 L 22.90625 0 L 16.75 0 L 15.59375 -4.578125 L 7.3125 -4.578125 L 6.15625 0 Z M 8.46875 -9.0625 L 14.4375 -9.0625 L 12.015625 -18.546875 L 10.890625 -18.546875 Z M 8.46875 -9.0625 "/></g></g></g><g fill="#ed3c6b" fill-opacity="1"><g transform="translate(156.422757, 68.133065)"><g><path d="M 1.25 0 L 1.25 -4.390625 L 3.796875 -4.390625 L 3.734375 -18.546875 L 1.25 -18.546875 L 1.25 -22.9375 L 11.828125 -22.9375 L 11.828125 -18.546875 L 9.3125 -18.546875 L 9.25 -4.390625 L 11.828125 -4.390625 L 11.828125 0 Z M 1.25 0 "/></g></g></g><g fill="#ed3c6b" fill-opacity="1"><g transform="translate(172.604415, 68.133065)"><g/></g></g><g fill="#ed3c6b" fill-opacity="1"><g transform="translate(183.371901, 68.133065)"><g><path d="M 2.171875 0 L 2.171875 -22.9375 L 17.515625 -22.9375 L 20.984375 -19.484375 L 20.984375 -10.640625 L 17.515625 -7.1875 L 8 -7.1875 L 8 0 Z M 8 -11.609375 L 14.25 -11.609375 L 15.34375 -12.703125 L 15.34375 -17.4375 L 14.25 -18.515625 L 8 -18.515625 Z M 8 -11.609375 "/></g></g></g><g fill="#ed3c6b" fill-opacity="1"><g transform="translate(207.923735, 68.133065)"><g><path d="M 2.171875 0 L 2.171875 -22.9375 L 17.796875 -22.9375 L 21.296875 -19.484375 L 21.296875 -11.265625 L 18.671875 -8.65625 L 22.15625 0 L 16.3125 0 L 13.296875 -7.8125 L 8 -7.8125 L 8 0 Z M 8 -12.234375 L 14.53125 -12.234375 L 15.625 -13.328125 L 15.625 -17.4375 L 14.53125 -18.515625 L 8 -18.515625 Z M 8 -12.234375 "/></g></g></g><g fill="#ed3c6b" fill-opacity="1"><g transform="translate(234.124707, 68.133065)"><g><path d="M 5.015625 0 L 1.5625 -3.453125 L 1.5625 -19.484375 L 5.015625 -22.9375 L 18.453125 -22.9375 L 21.90625 -19.484375 L 21.90625 -3.453125 L 18.453125 0 Z M 8.5 -4.421875 L 15.03125 -4.421875 L 16.125 -5.515625 L 16.125 -17.4375 L 14.96875 -18.515625 L 8.5 -18.515625 L 7.375 -17.4375 L 7.375 -5.515625 Z M 8.5 -4.421875 "/></g></g></g><g fill="#ed3c6b" fill-opacity="1"><g transform="translate(260.69906, 68.133065)"><g><path d="M 2.171875 0 L 2.171875 -22.9375 L 7.875 -22.9375 L 13.78125 -9 L 19.703125 -22.9375 L 25.359375 -22.9375 L 25.359375 0 L 19.953125 0 L 19.953125 -12.609375 L 15.15625 -1 L 12.421875 -1 L 7.59375 -12.609375 L 7.59375 0 Z M 2.171875 0 "/></g></g></g><g fill="#ed3c6b" fill-opacity="1"><g transform="translate(291.3496, 68.133065)"><g><path d="M 2.171875 0 L 2.171875 -22.9375 L 17.515625 -22.9375 L 20.984375 -19.484375 L 20.984375 -10.640625 L 17.515625 -7.1875 L 8 -7.1875 L 8 0 Z M 8 -11.609375 L 14.25 -11.609375 L 15.34375 -12.703125 L 15.34375 -17.4375 L 14.25 -18.515625 L 8 -18.515625 Z M 8 -11.609375 "/></g></g></g><g fill="#ed3c6b" fill-opacity="1"><g transform="translate(315.901435, 68.133065)"><g><path d="M 6.5625 0 L 6.5625 -18.203125 L 0.15625 -18.203125 L 0.15625 -22.9375 L 18.796875 -22.9375 L 18.796875 -18.203125 L 12.390625 -18.203125 L 12.390625 0 Z M 6.5625 0 "/></g></g></g><g fill="#ed3c6b" fill-opacity="1"><g transform="translate(193.900796, 105.042835)"><g><path d="M 2.171875 0 L 2.171875 -22.9375 L 8 -22.9375 L 8 -14.40625 L 15.8125 -14.40625 L 15.8125 -22.9375 L 21.625 -22.9375 L 21.625 0 L 15.8125 0 L 15.8125 -9.859375 L 8 -9.859375 L 8 0 Z M 2.171875 0 "/></g></g></g><g fill="#ed3c6b" fill-opacity="1"><g transform="translate(220.817434, 105.042835)"><g><path d="M 5.421875 0 L 2.015625 -3.453125 L 2.015625 -22.9375 L 7.84375 -22.9375 L 7.84375 -5.515625 L 8.9375 -4.421875 L 15.25 -4.421875 L 16.34375 -5.515625 L 16.34375 -22.9375 L 22.15625 -22.9375 L 22.15625 -3.453125 L 18.703125 0 Z M 5.421875 0 "/></g></g></g><g fill="#ed3c6b" fill-opacity="1"><g transform="translate(248.107459, 105.042835)"><g><path d="M 2.171875 0 L 2.171875 -22.9375 L 17.5 -22.9375 L 20.953125 -19.484375 L 20.953125 -13.96875 L 19.390625 -12.390625 L 21.84375 -10.078125 L 21.84375 -3.453125 L 18.390625 0 Z M 8 -14.03125 L 14.28125 -14.03125 L 15.375 -15.125 L 15.375 -17.4375 L 14.28125 -18.515625 L 8 -18.515625 Z M 8 -4.421875 L 14.9375 -4.421875 L 16.03125 -5.515625 L 16.03125 -8.90625 L 14.9375 -9.984375 L 8 -9.984375 Z M 8 -4.421875 "/></g></g></g></svg>